<?xml version="1.0" encoding="UTF-8"?><svg id="illust" xmlns="http://www.w3.org/2000/svg" viewBox="0 0 640 640"><defs><style>.cls-1{fill:#ffc7af;}.cls-2{fill:#fedeb5;}.cls-3{fill:#cdfffe;}.cls-4{fill:#cdcdff;}.cls-5{stroke:#ffc7af;stroke-miterlimit:10;}.cls-5,.cls-6{fill:none;}.cls-6{stroke:#000;stroke-linecap:round;stroke-linejoin:round;stroke-width:7px;}</style></defs><g><g><path class="cls-2" d="m331.42,526.02c-8.05,2.17-16.97.97-24.3-3.01-18.56,6.41-33.71,20.18-45.26,35.98-11.01,15.06-19.07,32.03-27.14,48.84-1.97,4.1-4.67,8.73-9.18,9.21-2.5.27-4.92-.87-7.13-2.07-8.07-4.39-15.45-10.04-21.79-16.69-2.56-2.7-5.04-5.7-5.9-9.31-.87-3.62.33-7.98,3.63-9.69,3.18-1.66,7.05-.44,10.36.94,7.55,3.15,14.79,7.06,21.57,11.65.16-23.71,9.44-47.24,25.5-64.69,6.83-7.43,14.99-14.46,20.51-22.97,5.94-9.14,6.84-20.65,8.52-31.12,2.03-12.7,2.29-25.59,2.48-38.54.41-28.26-.73-56.55-3.43-84.68l-.19-.4c-24.13,11.43-46.36,26.85-65.46,45.49,4.12,1.4,6.97,5.86,6.5,10.19s-4.21,8.08-8.54,8.55c-7.05.78-12.83-6.7-12.85-13.79-.03-7.09,3.96-13.52,8.08-19.29,29.52-41.29,74.73-71.96,124.8-80.23-.1-6.05-.21-12.1-.32-18.15l1.71-.03c.19,10.14,7.75,13.09,13.71,19.93,5.11,5.87,11.47,14.19,11.78,22.16.37,9.46.6,16.91,3.43,26.42,9.41,31.6,13.31,64.84,11.47,97.77-.33,5.84-.82,11.81.73,17.45s5.66,10.99,11.38,12.19l2,.66c4.62,7.64,7.07,16.77,5.27,25.48-2.01,9.69-10.06,18.34-19.91,19.25-1.67,4.2-1.26,6.64.91,10.6,2.18,3.97,5.41,7.22,8.48,10.55,15.13,16.44,27.02,35.87,34.77,56.83,1.68,4.54,3.19,9.24,3.26,14.08.06,4.84-1.48,9.9-5.08,13.14-2.74,2.47-6.94,3.66-10.2,1.93-3.73-1.98-4.81-6.72-5.62-10.86-2.31-11.74-5.76-23.57-12.95-33.12-8.62-11.45-21.68-18.49-33.14-27.09-11.13-8.33-21.61-19.81-22.46-33.56Z"/><path class="cls-1" d="m403.67,360.78c1.61,7.29.59,15.14-2.85,21.78l-2.29.43c-3.07-3.87-6.94-6.85-11.64-8.77l-2.19.18c-.92-12.08-2.43-24.11-5.93-35.56-.97-3.16-2.12-6.28-3.47-9.31,8.66,4.52,17.98,13.91,24.81,22.15h0c1.64,2.84,2.85,5.92,3.56,9.1Z"/><path class="cls-2" d="m403.67,360.78c-.71-3.18-1.92-6.26-3.56-9.09,4.88,5.89,8.47,11.18,9.64,13.68,1.86,3.99,10.82,18.33,8.65,22.38,2.8-.78,6.24,1.23,8.24,3.09.77.72,5.62,8.47,3.33,9.17,4.32-1.33,9.38,2.49,9.28,7.01-.09,4.29-4.27,7.74-8.56,8.04-4.28.3-19.49-5.71-21.93-9.25-2.11-3.07-2.08-11.18-4.5-13.91-1.6-1.8-2.4-4.03-3.72-6.1-.63-.98-1.29-1.92-2.01-2.81l2.29-.43c3.44-6.64,4.46-14.49,2.85-21.78Z"/><path class="cls-1" d="m375.3,329.53c1.35,3.03,2.5,6.15,3.47,9.31,3.5,11.45,5.01,23.48,5.93,35.56.78,9.92,1.17,19.86,1.94,29.56,1.94,24.07,1.88,48.29-.17,72.34.56.81,1.1,1.64,1.62,2.49l-2-.66c-5.72-1.2-9.83-6.55-11.38-12.19s-1.06-11.61-.73-17.45c1.84-32.93-2.06-66.17-11.47-97.77-2.83-9.51-3.06-16.96-3.43-26.42-.31-7.97-6.67-16.29-11.78-22.16-5.96-6.84-13.52-9.79-13.71-19.93l-1.71.03c-.01-.44-.01-.88-.02-1.32l.33-2.22c6.54.98,12.85,1.47,18.91,1.55v1.82c-.36,8.06,1.13,10.95.78,19-.04.89,6.71,5.83,7.61,6.6,3.12,2.67,5.91,5.69,8.36,8.98,2.97,3.99,5.44,8.34,7.45,12.88Z"/><path class="cls-1" d="m460.86,219.56l.08.23c-12.56,20.05-49.17,61.23-109.84,60.46-6.06-.08-12.37-.57-18.91-1.55-3.45-.52-6.97-1.17-10.55-1.96-3.75-.83-7.36-1.7-10.86-2.6l.17-.67c83.09-.56,120.99-31.85,138.47-55.05l.25.19c4.16,1.86,7.9,1.94,11.19.95Z"/><path class="cls-1" d="m475.73,184.87c2.27,4.93,2.54,11.36,1.17,16.22-1.24,4.42-6.85,15.67-16.04,18.47-3.29.99-7.03.91-11.19-.95l-.25-.19c5.76-7.64,9.3-14.4,11.52-18.9,3.2-6.5,5.39-14.03,6.52-21.89,3.92.85,6.62,3.65,8.27,7.24Z"/><path class="cls-1" d="m482.37,158.65l-.15.11c-.89,6.92-3.44,18.1-5.56,26.02l-.93.09c-1.65-3.59-4.35-6.39-8.27-7.24,2.02-14,.66-29.01-4.37-40.93,7.17,6.8,13.67,14.18,19.28,21.95Z"/><path class="cls-4" d="m463.09,136.7c-12.07-11.5-26.01-21.43-40.74-29.05l.25-.49c3.14-9.7,26.36,10.22,41.37,7.99,11.03-1.64,7.22-13.82,4.85-20.54-2.2-6.27-6.57-16.87-1.62-21.44l.38-.22c15.57,26.08,21.87,56.85,15.75,87.02-.31-.44-.63-.88-.96-1.32-5.61-7.77-12.11-15.15-19.28-21.95Z"/><path class="cls-2" d="m467.46,177.63c-1.13,7.86-3.32,15.39-6.52,21.89-2.22,4.5-5.76,11.26-11.52,18.9-17.48,23.2-55.38,54.49-138.47,55.05l-.17.67c-69.58-18.01-89.63-50.29-95.45-71.85-.05-.19-.1-.37-.15-.56-6.31-24.01-2.81-51.98,8.81-73.9,11.2-21.12,27.55-41.26,44.2-58.67,9.84,3.24,19.78,6.17,29.81,8.79,33.04,8.62,69.79,9.18,102.12,20.17,7.52,2.56,14.97,5.76,22.23,9.53,14.73,7.62,28.67,17.55,40.74,29.05,5.03,11.92,6.39,26.93,4.37,40.93Z"/><path class="cls-3" d="m468.82,94.61c2.37,6.72,6.18,18.9-4.85,20.54-15.01,2.23-38.23-17.69-41.37-7.99l-.25.49c-7.26-3.77-14.71-6.97-22.23-9.53-32.33-10.99-69.08-11.55-102.12-20.17-10.03-2.62-19.97-5.55-29.81-8.79.75-.8,1.52-1.59,2.28-2.38,13.56-46.38,58.05-57.64,84.74-58.58,38.53-1.35,73.8,16.71,98.88,45.99,5.06,5.9,9.57,12.18,13.49,18.76l-.38.22c-4.95,4.57-.58,15.17,1.62,21.44Z"/></g><path class="cls-5" d="m391.89,342.24c3.32,2.56,6.12,5.8,8.22,9.44"/></g><g><path class="cls-6" d="m455.7,179.92c18.84-9.57,24.36,9.95,21.2,21.17-1.68,5.99-11.42,24.58-27.22,17.52"/><path class="cls-6" d="m482.22,158.76c-.89,6.92-3.44,18.1-5.56,26.02"/><path class="cls-6" d="m222.49,51.63c24.41,10.77,49.69,19.58,75.51,26.32,33.05,8.62,69.79,9.18,102.13,20.17,32.33,10.99,63.5,33.96,83.21,61.85,7.66-37.79-4.15-76.51-29.23-105.79s-60.35-47.34-98.88-45.99c-26.69.94-71.18,12.2-84.74,58.58-17.41,17.94-34.77,38.97-46.48,61.05-11.62,21.92-15.12,49.89-8.81,73.9.05.18.1.37.15.55,6.11,22.64,27.91,57.11,106.31,74.45,78.39,17.34,124.82-33.84,139.3-56.95"/><path class="cls-6" d="m266.13,103.18c13.46,1.74,26.93,3.48,40.39,5.21"/><path class="cls-6" d="m339.23,116.75c33.32,9.43,66.65,18.87,99.97,28.3"/><path class="cls-6" d="m280.05,199.3c5.94,4.75,11.88,9.5,17.81,14.25"/><path class="cls-6" d="m331.86,280.92c.12,6.49.23,12.98.35,19.47-50.08,8.27-95.29,38.94-124.8,80.23-4.12,5.77-8.11,12.2-8.08,19.29s5.81,14.57,12.85,13.8c4.33-.48,8.07-4.23,8.54-8.55s-2.38-8.79-6.5-10.19c23.51-22.93,51.73-41,82.4-52.74"/><path class="cls-6" d="m331.36,524.74c.27,14.33,11.05,26.25,22.51,34.85,11.46,8.6,24.53,15.64,33.15,27.09,7.19,9.55,10.64,21.38,12.95,33.12.81,4.15,1.89,8.88,5.62,10.87,3.25,1.73,7.46.54,10.2-1.93,3.6-3.24,5.14-8.3,5.07-13.14s-1.57-9.54-3.25-14.08c-7.75-20.96-19.64-40.39-34.78-56.83-3.06-3.33-6.29-6.58-8.47-10.55-2.18-3.96-2.58-6.4-.91-10.6,9.85-.91,17.9-9.57,19.91-19.25s-1.23-19.88-6.89-27.97c2.05-24.05,2.11-48.27.17-72.34-1.73-21.53-1.5-44.3-7.87-65.13-2.42-7.9-5.97-15.54-10.92-22.19-2.45-3.29-5.24-6.31-8.36-8.98-.9-.77-7.65-5.71-7.61-6.6.35-8.05-1.14-10.95-.79-19"/><path class="cls-6" d="m279.86,349.87c2.7,28.14,3.85,56.42,3.43,84.69-.19,12.94-.44,25.83-2.48,38.54-1.68,10.47-2.58,21.98-8.51,31.11-5.53,8.51-13.68,15.55-20.52,22.98-16.06,17.45-25.33,40.98-25.5,64.69-6.78-4.59-14.01-8.5-21.57-11.66-3.31-1.38-7.18-2.6-10.36-.94-3.3,1.72-4.5,6.08-3.63,9.69s3.34,6.62,5.91,9.31c6.34,6.65,13.72,12.3,21.78,16.69,2.21,1.2,4.63,2.34,7.13,2.07,4.51-.49,7.21-5.12,9.18-9.21,8.07-16.82,16.14-33.79,27.14-48.85,11.55-15.8,26.69-29.57,45.26-35.98,8.17,4.43,18.3,5.42,27.01,2.13,7.71-2.91,14.15-9.26,16.71-17.09,2.56-7.83,1.01-16.99-4.35-23.24"/><path class="cls-6" d="m375.11,329.43c14.91,7.66,31.82,29.91,34.64,35.94,1.86,3.99,10.82,18.33,8.65,22.38,2.81-.78,6.24,1.23,8.24,3.08.78.72,5.63,8.47,3.34,9.18,4.32-1.33,9.38,2.49,9.28,7-.09,4.3-4.27,7.74-8.56,8.04s-19.49-5.71-21.93-9.25c-2.11-3.07-2.08-11.18-4.5-13.91-1.61-1.81-2.4-4.03-3.72-6.11-3.34-5.25-7.86-9.22-13.65-11.58"/></g></svg>