<?xml version="1.0" encoding="UTF-8"?><svg id="illust" xmlns="http://www.w3.org/2000/svg" viewBox="0 0 640 640"><defs><style>.cls-1{fill:lime;}.cls-2{fill:#fff;}.cls-3{fill:#ffc7af;}.cls-4{fill:#fedeb5;}.cls-5{fill:#600;}.cls-6{fill:#999;}.cls-7{fill:#9efe9d;}.cls-8{fill:#9e98ff;}.cls-9{fill:#cdfffe;}.cls-10{fill:#cdcdff;}.cls-11{fill:#d9b7ac;}.cls-12{fill:#7a4303;}.cls-13{stroke:#000;}.cls-13,.cls-14{fill:none;stroke-linecap:round;stroke-linejoin:round;stroke-width:6px;}.cls-14{stroke:#9d6928;}</style></defs><rect class="cls-2" width="640" height="640"/><g id="masakari"><g><path class="cls-6" d="m425.02,464.99c-3.98,21.22-21.87,39.11-43.09,43.09-3.01-14.84-8.01-31.2-17.04-43.37.03-.35.07-.7.1-1.05,5.65-5.33,10.39-8.74,16.1-14.18,2.26,1.32,4.6,2.62,6.99,3.88,11.52,6.01,24.32,10.87,36.94,11.64Z"/><path class="cls-12" d="m398.57,442.19c-3.06,3.2-7.39,7.86-10.4,11.01l-.09.16c-2.39-1.25-4.73-2.56-6.99-3.88l.21-.44c3.19-2.98,6.38-5.96,9.56-8.93l1.44-1.47c1.47,1.7,3.65,3.07,6.27,3.55Z"/><path class="cls-12" d="m433.57,392.27c1.79,2.34,3.57,4.68,5.35,7.01-10.14,10.59-20.28,21.18-30.42,31.77l-1.29.02c-1.22-.38-2.81-.25-4.78.67.68-2.38.63-4.34.09-5.94l.29-.11c10.25-11.14,20.51-22.28,30.76-33.41Z"/><path class="cls-10" d="m351.01,366.82c19.66,12.21,38.34,26.75,40.16,53.29-.14.05-.28.11-.42.16-7.83,2.98-16.52,3.67-24.74,1.97l-.73.07c-.71-7.63-1.78-13.97-2.88-18.69-2.93-12.52-6.95-24.72-11.63-36.7l.24-.09Z"/><path class="cls-4" d="m398.57,442.19c-2.62-.47-4.8-1.85-6.27-3.55-.61-.71-1.1-1.48-1.44-2.26-1.83-4.19-3.04-12.82-.53-15.33.16-.16.34-.28.56-.41,2.64-1.39,9.83-.22,11.62,5.15.54,1.6.6,3.56-.09,5.94,1.97-.92,3.57-1.05,4.78-.67,3.97,1.25,3.73,8.01-1.61,10.26-2.53,1.06-4.92,1.26-7.03.86Z"/><path class="cls-10" d="m365.27,422.31c1.04,11.28,1.3,25.41-.28,41.36-.17.16-.35.32-.53.49.14.18.28.37.42.56-.91,8.84-2.41,18.22-4.64,27.98-.98.76-1.99,1.48-3.01,2.16-3.06,2.07-6.33,3.81-9.7,5.25-1.04.45-2.08.85-3.13,1.24l-.13-1.12c-6.4-2.74-13.8-6.85-14.17-13.81-.23-4.45,2.62-8.36,4.92-12.17,8.24-13.63,10.53-30.28,8.68-46.09-1.85-15.82-7.58-30.95-14.47-45.31-3.1-6.46-6.49-13.87-3.69-20.46,2.93-6.88,15.57-9.56,21.36-4.84l.03-.02c1.31,3.12,2.59,6.24,3.81,9.39,4.68,11.98,8.69,24.19,11.63,36.7,1.1,4.72,2.18,11.06,2.88,18.69Z"/><path class="cls-10" d="m364.99,463.66c-.03.35-.07.7-.1,1.05-.14-.19-.28-.38-.42-.56.17-.17.35-.34.53-.49Z"/><path class="cls-3" d="m438.28,158.06c8.61,19.55,11.49,41.28,7.16,62.65-1.6,6.61-3.93,14.58-5.76,21.42l-.8.08c-1.6-3.48-4.34-6.1-8.42-6.44,4.2-14.91,7.6-34.25,5.63-47.91-1.54-10.64-9.45-33.36,1.94-29.69l.26-.11Z"/><path class="cls-3" d="m438.87,242.2c1.96,4.26,2.19,9.81,1.01,14-1.07,3.82-5.91,13.53-13.85,15.94-2.84.85-6.07.79-9.66-.82l-2.09-.98c4.86-6.78,7.83-12.77,9.76-16.69,1.95-3.95,4.28-10.35,6.4-17.89,4.08.34,6.83,2.96,8.42,6.44Z"/><path class="cls-4" d="m430.45,235.76c-2.11,7.54-4.45,13.94-6.4,17.89-1.93,3.92-4.9,9.9-9.76,16.69-14.58,20.35-46.16,47.86-117.65,48.34l-.15.58c-60.06-15.55-77.37-43.41-82.39-62.02-.04-.16-.09-.32-.13-.48-5.45-20.73-2.43-44.87,7.6-63.79,8.65-16.31,20.87-31.96,33.64-45.84,2.15-2.34,6.57-8.33,8.98-14.01,9.38-22.12,27.42-33.54,44.83-39.01l.29-.03c.84,10.94,1.49,21.89,1.97,32.85-.07,1.48.09,2.74.15,3.35-.04-1.11-.09-2.24-.15-3.35.13-2.94,1.15-6.69,5.66-7.58,6.78-1.34,8.18,7.61,8.2,11.33.72-3.88,1.86-10.94,9.43-9.83,7.57,1.1,6.28,8.8,4.7,14.28.93-.7,1.86-1.4,2.8-2.08,9.22-6.84,18.36-13.1,29.18-17.19,11.91-4.51,26.96-4.58,39.43,3.6,3.33,3.12,6.5,6.43,9.5,9.94,3.59,4.19,6.86,8.6,9.79,13.19,3.18,4.95,5.95,10.13,8.3,15.47l-.26.11c-11.39-3.68-3.48,19.04-1.94,29.69,1.97,13.66-1.42,33-5.63,47.91Z"/><path class="cls-5" d="m432.41,59.89c2.68,9.24,2.05,19.09,1.38,28.69-1.19,17.26-2.4,36.61-3.59,53.86l-.22.15c-2.93-4.59-6.2-9-9.79-13.19-3-3.51-6.17-6.83-9.5-9.94-12.47-8.18-27.52-8.11-39.43-3.6-10.82,4.08-19.97,10.35-29.18,17.19l-.68-.93c7.23-40.56,8.36-68.91,6.74-107.8,20.67-4.45,39.62-6.23,64.58,9.16l.1-.14c9.08,6.91,16.45,15.72,19.6,26.55Z"/><path class="cls-3" d="m312.01,322.71c-2.02-.35-4.07-.75-6.15-1.21-3.24-.72-6.35-1.47-9.37-2.24l.15-.58c71.5-.47,103.07-27.99,117.65-48.34l2.09.98c3.59,1.61,6.82,1.67,9.66.82l.07.2c-11,17.56-43.37,53.89-97.11,52.14-5.44-.18-11.1-.74-16.99-1.77Z"/><path class="cls-11" d="m412.81,33.33l-.1.14c-24.96-15.39-43.91-13.6-64.58-9.16-20.56,4.43-33.33.03-46.98-8.96,31.14-8.78,65.4-5.96,94.67,7.8,5.91,2.78,11.74,6.16,17,10.18Z"/><path class="cls-8" d="m384.08,593.28c3.68,3.33,15.64,16.41,12.28,25.22s-14.13,14.97-20.35,10.12c-6.22-4.84,1.84-10.48-6.86-29.4.4-.18,1-.44,1.75-.74,3.11-1.24,8.73-3.35,12.62-4.97.19-.07.37-.15.55-.22Z"/><path class="cls-4" d="m383.4,593.2l.13.31c-3.89,1.62-9.51,3.73-12.62,4.97l-.52-.9c-8.7-10.75-21.33-20.67-32.58-28.73,3.58-2.74,7.18-5.17,10.88-7.42,4.33-2.65,8.8-5.07,13.55-7.52l.37.73c12.48,9.62,17,22.5,20.78,38.56Z"/><path class="cls-1" d="m357.47,495.21c13.52,13.28,20.52,32.93,18.44,51.77-4.84,2.46-9.36,4.71-13.66,6.93-4.75,2.45-9.22,4.87-13.55,7.52l-.16-.27c5.71-18.71,5.63-42.17-.82-60.64l-.18-.41c3.38-1.44,6.64-3.18,9.7-5.25l.23.35Z"/><path class="cls-7" d="m337.82,568.85c-1.28.98-2.56,2-3.84,3.08-4.39-6.28-11.78-10.35-19.43-10.7-7.65-.35-15.38,3.03-20.33,8.88-6.53-5.58-13.58-10.54-21.02-14.82-10.86-6.27-22.56-11.07-34.69-14.26-5.05-1.33-10.19-2.37-15.36-3.12,10.51-20.93,25.8-39.45,44.38-53.71l.3-.36c3.88,3.16,7.52,6.75,11.24,9.88,13.46,11.35,41.81,16.23,65.34,7.61,1.05-.39,2.1-.79,3.13-1.24l.18.41c6.45,18.47,6.53,41.93.82,60.64l.16.27c-3.7,2.25-7.3,4.68-10.88,7.42Z"/><path class="cls-12" d="m348.13,24.31c1.61,38.89.49,67.23-6.74,107.8l.68.93c-.93.68-1.86,1.38-2.8,2.08,1.57-5.48,2.87-13.18-4.7-14.28-7.56-1.1-8.71,5.96-9.43,9.83-.02-3.71-1.42-12.66-8.2-11.33-4.51.89-5.53,4.64-5.66,7.58-.47-10.96-1.13-21.92-1.97-32.85-1.99-26.27-4.99-52.43-8.86-78.53.23-.07.46-.13.69-.19,13.66,8.99,26.42,13.39,46.98,8.96Z"/><path class="cls-9" d="m229.14,387.23c-.65-.74-1.33-1.47-2.04-2.16,21.28-21.71,50.64-36.57,80.85-41l-.09-.66c0-2.79-.22-6.89-.22-9.69,1.72-.06,3.44-.13,5.16-.19,5.46-.2,10.91-.41,16.37-.61,2.2-.08,4.4-.16,6.6-.24,3.89,8.19,7.67,16.47,11.19,24.84l-.03.02c-5.79-4.72-18.44-2.04-21.36,4.84-2.81,6.59.59,14,3.69,20.46,6.89,14.36,12.62,29.49,14.47,45.31,1.85,15.81-.44,32.46-8.68,46.09-2.3,3.82-5.15,7.73-4.92,12.17.36,6.97,7.76,11.07,14.17,13.81l.13,1.12c-23.52,8.61-51.88,3.74-65.34-7.61-3.72-3.13-7.36-6.72-11.24-9.88-4.08-3.35-8.43-6.24-13.39-7.64.85-22.49,3.11-45.47,3.95-67.96l.11-.71c-6.13-1.05-12.46-.91-18.52.54-.48-1.54-1.01-3.06-1.58-4.57-2.24-5.91-5.17-11.58-9.27-16.28Z"/><path class="cls-4" d="m329.17,332.92c-5.46.21-10.91.41-16.37.61v-.05c-.15-2.08-.6-8.17-.79-10.77,5.89,1.03,11.55,1.59,16.99,1.77v.2c0,1.86.16,6.33.17,8.24Z"/><path class="cls-4" d="m273.2,555.3l-.09.15c-13.98,12.72-26.13,25.32-38.06,40.84l-2.24.29c-2.62-2.13-5.93-3.9-8.46-6.09l.73-.91c-.56-15.97,3.2-35.43,13.23-47.86l.18-.68c12.13,3.19,23.83,7.99,34.69,14.26Z"/><path class="cls-4" d="m229.14,387.23c4.1,4.7,7.04,10.37,9.27,16.28-6.98,5.9-16.1,13.47-23.08,19.38,3.94,2.12,5.26,7.73,3.14,11.68-2.11,3.95-6.99,5.99-11.42,5.33-6.53-.98-11.6-7.76-10.7-14.3.73-5.25,4.58-9.43,8.25-13.26,7.64-7.97,16.87-17.13,24.53-25.11Z"/><path class="cls-8" d="m232.82,596.58c.18.14.35.28.52.43-.57,5.8-.98,15.94-1.84,17.61-1.99,3.87-7.35,4.9-11.44,3.42-4.09-1.48-19.58-18.3-24.3-23.44-2.91-3.17-6.03-7.45-4.26-11.38,1.68-3.76,7.04-4.43,10.8-2.74,3.76,1.7,6.53,4.98,9.76,7.56s8.49,4.05,12.3,2.45c2.53,2.18,5.84,3.95,8.46,6.09Z"/></g><g><path class="cls-13" d="m421.58,237.93c16.26-8.26,21.03,8.59,18.3,18.27-1.45,5.17-9.86,21.22-23.5,15.13"/><path class="cls-13" d="m426.1,272.34c-12.5,19.95-52.57,64.13-120.24,49.16s-86.49-44.72-91.77-64.27c-.04-.16-.09-.32-.13-.48-5.45-20.73-2.43-44.87,7.6-63.79,8.65-16.32,20.87-31.97,33.64-45.85,2.15-2.34,6.57-8.33,8.98-14.01,9.38-22.12,27.42-33.54,44.83-39.01"/><path class="cls-13" d="m311.97,322.23c.16,2.22.68,9.04.83,11.26"/><path class="cls-13" d="m328.98,324.68c.02,1.88.17,6.43.19,8.31"/><path class="cls-13" d="m280.74,417.72c-11.09-9.31-26.67-12.99-40.75-9.64-2.69-8.46-6.55-16.81-12.89-23.01,23.37-23.84,56.47-39.41,89.75-42"/><path class="cls-13" d="m258.39,408.25c-.85,22.49-3.11,45.47-3.95,67.96,9.64,2.72,16.96,11.06,24.62,17.52,16.69,14.08,56.31,18.21,81.19-1.03,9.1-39.81,5.82-73.39,2.14-89.09-5.77-24.64-15.75-48.08-26.62-70.93-9.38.35-18.75.69-28.13,1.04,0,2.79.22,6.89.22,9.69"/><path class="cls-13" d="m351,366.82c19.66,12.21,38.35,26.75,40.17,53.28-7.94,3.12-16.8,3.87-25.16,2.14"/><path class="cls-13" d="m390.33,421.05c2.51-2.51,15.27-.37,12.1,10.69,8.42-3.97,10.13,6.66,3.17,9.59s-12.91-.76-14.74-4.94c-1.83-4.19-3.03-12.83-.53-15.33Z"/><path class="cls-13" d="m229.3,387.06c-7.69,8.02-17,17.25-24.69,25.28-3.67,3.82-7.52,8.01-8.25,13.26-.91,6.54,4.16,13.33,10.69,14.3,4.43.66,9.31-1.38,11.42-5.33,2.11-3.95.79-9.56-3.15-11.68,6.99-5.91,16.12-13.5,23.12-19.42"/><path class="cls-13" d="m267.53,484.22c-18.58,14.26-33.87,32.78-44.38,53.71,26.08,3.77,51.03,15.07,71.07,32.19,4.94-5.85,12.68-9.23,20.33-8.88s15.04,4.42,19.43,10.7c12.85-10.77,25.55-16.61,41.93-24.96,2.08-18.84-4.92-38.48-18.44-51.77"/><path class="cls-13" d="m337.8,568.84c11.25,8.06,22.24,16.31,30.95,27.07"/><path class="cls-13" d="m362.62,554.64c12.49,9.63,16.93,20.5,20.71,36.55"/><path class="cls-13" d="m369.16,599.22c2.12-.98,10.13-3.92,14.92-5.94,3.68,3.34,15.64,16.41,12.28,25.22s-14.13,14.97-20.35,10.12,1.84-10.48-6.86-29.4Z"/><path class="cls-13" d="m273.11,555.45c-13.99,12.73-26.13,25.32-38.06,40.84"/><path class="cls-13" d="m238.32,541.73c-10.03,12.43-13.79,31.89-13.23,47.86"/><path class="cls-13" d="m224.36,590.5c2.7,2.33,6.28,4.18,8.98,6.52-.57,5.8-.97,15.94-1.84,17.61-1.99,3.86-7.35,4.9-11.44,3.42s-19.58-18.3-24.3-23.45c-2.91-3.17-6.03-7.45-4.27-11.37,1.69-3.77,7.04-4.43,10.8-2.74s6.53,4.98,9.76,7.56,8.49,4.05,12.3,2.45Z"/><path class="cls-13" d="m257.95,171.68c11.62,1.5,23.24,3,34.87,4.5"/><path class="cls-13" d="m321.05,183.4c28.77,8.14,57.53,16.29,86.3,24.43"/><path class="cls-13" d="m269.96,254.65c5.13,4.1,10.25,8.2,15.38,12.3"/><path class="cls-14" d="m348.13,24.32c1.62,38.89.5,67.23-6.74,107.8"/><path class="cls-13" d="m430.2,142.44c1.19-17.26,2.4-36.6,3.59-53.86.66-9.61,1.3-19.45-1.39-28.69-4.97-17.11-20.47-29.14-36.6-36.73-29.49-13.87-64.04-16.63-95.35-7.62,5.64,38.07,9.42,76.28,10.97,114.73-.16-1.82-1.26-9.59,5.52-10.93s8.18,7.62,8.2,11.33c.72-3.88,1.86-10.94,9.43-9.84s6.27,8.8,4.7,14.28c10.2-7.63,20.07-14.77,31.98-19.27,11.91-4.5,26.96-4.58,39.44,3.6,3.33,3.11,6.5,6.43,9.51,9.94,21.66,25.27,31.85,58.7,25.24,91.31-1.59,6.61-3.93,14.57-5.76,21.41"/><path class="cls-13" d="m300.94,15.21c13.73,9.09,26.52,13.56,47.19,9.11,20.67-4.45,39.62-6.23,64.58,9.16"/><path class="cls-13" d="m402.8,425.69c10.26-11.14,20.51-22.28,30.77-33.42,1.78,2.34,3.57,4.68,5.35,7.02-10.14,10.59-20.28,21.18-30.41,31.77"/><path class="cls-13" d="m390.86,440.11l-9.57,8.93"/><path class="cls-13" d="m398.75,442c-3.07,3.21-7.52,7.98-10.59,11.19"/><path class="cls-13" d="m381.09,449.48c13.18,7.69,28.69,14.58,43.92,15.51-3.98,21.21-21.87,39.11-43.09,43.08-3.06-15.06-8.17-31.69-17.46-43.93,5.88-5.61,10.74-9.06,16.63-14.67Z"/></g></g></svg>