<?xml version="1.0" encoding="UTF-8"?><svg id="illust" xmlns="http://www.w3.org/2000/svg" xmlns:xlink="http://www.w3.org/1999/xlink" viewBox="0 0 640 640"><defs><style>.cls-1,.cls-2,.cls-3{fill:none;}.cls-4{clip-path:url(#clippath);}.cls-5{fill:#fff;}.cls-6{fill:#ffc7af;}.cls-7{fill:#fedeb5;}.cls-8{fill:#600;}.cls-9{fill:#cdfffe;}.cls-10{fill:#cdcdff;}.cls-11{fill:#d9b7ac;}.cls-12{fill:#7a4303;}.cls-2{stroke:#000;}.cls-2,.cls-3{stroke-linecap:round;stroke-linejoin:round;stroke-width:8px;}.cls-3{stroke:#9d6928;}</style><clipPath id="clippath"><rect class="cls-1" width="640" height="640"/></clipPath></defs><rect class="cls-5" width="640" height="640"/><g id="mohawk"><g class="cls-4"><g><g><path class="cls-6" d="m475.5,232.7c11.81,26.83,15.77,56.65,9.82,85.97-2.19,9.07-5.39,20.01-7.9,29.39l-1.1.11c-2.19-4.77-5.96-8.37-11.56-8.84,5.77-20.46,10.42-47,7.72-65.74-2.11-14.61-12.97-45.78,2.67-40.74l.36-.15Z"/><path class="cls-6" d="m476.31,348.17c2.69,5.84,3.01,13.46,1.39,19.21-1.47,5.24-8.11,18.56-19,21.88-3.9,1.17-8.33,1.08-13.26-1.13l-2.87-1.35c6.67-9.31,10.74-17.52,13.4-22.9,2.68-5.43,5.88-14.2,8.78-24.56,5.6.46,9.37,4.06,11.56,8.84Z"/><path class="cls-7" d="m464.75,339.33c-2.9,10.35-6.1,19.13-8.78,24.56-2.65,5.38-6.73,13.59-13.4,22.9-20.01,27.92-63.34,65.68-161.45,66.33l-.2.79c-82.42-21.33-106.17-59.57-113.07-85.11-.06-.23-.12-.44-.18-.66-7.47-28.44-3.33-61.57,10.44-87.54,11.87-22.39,28.64-43.86,46.16-62.91,2.95-3.21,9.01-11.43,12.32-19.23,12.88-30.36,37.63-46.03,61.53-53.53l.4-.04c1.15,15.01,2.05,30.04,2.7,45.08-.09,2.03.13,3.77.2,4.6-.06-1.53-.13-3.07-.2-4.6.18-4.04,1.58-9.18,7.77-10.4,9.31-1.84,11.23,10.45,11.25,15.54.98-5.32,2.56-15.01,12.94-13.49,10.39,1.5,8.61,12.07,6.46,19.59,1.28-.96,2.56-1.92,3.84-2.85,12.65-9.38,25.2-17.98,40.05-23.58,16.35-6.18,36.99-6.29,54.11,4.94,4.57,4.28,8.92,8.82,13.04,13.65,4.93,5.75,9.42,11.8,13.43,18.1,4.36,6.8,8.16,13.91,11.38,21.23l-.36.15c-15.64-5.05-4.77,26.13-2.67,40.74,2.7,18.74-1.95,45.29-7.72,65.74Z"/><path class="cls-8" d="m467.45,97.98c3.68,12.69,2.81,26.19,1.9,39.37-1.63,23.68-3.29,50.24-4.93,73.92l-.31.2c-4.02-6.3-8.51-12.35-13.43-18.1-4.12-4.82-8.47-9.37-13.04-13.65-17.12-11.23-37.76-11.12-54.11-4.94-14.85,5.6-27.4,14.2-40.05,23.58l-.94-1.28c9.93-55.66,11.47-94.56,9.25-147.93,28.36-6.1,54.37-8.55,88.62,12.57l.14-.19c12.46,9.49,22.58,21.57,26.9,36.44Z"/><path class="cls-6" d="m302.22,458.65c-2.77-.47-5.59-1.03-8.43-1.66-4.44-.98-8.72-2.01-12.86-3.08l.2-.79c98.12-.65,141.45-38.41,161.45-66.33l2.87,1.35c4.93,2.2,9.36,2.3,13.26,1.13l.09.27c-15.09,24.09-59.51,73.95-133.26,71.55-7.46-.25-15.23-1.02-23.31-2.43Z"/><path class="cls-11" d="m440.55,61.54l-.14.19c-34.25-21.12-60.26-18.67-88.62-12.57-28.22,6.08-45.74.04-64.47-12.3,42.73-12.05,89.74-8.19,129.91,10.71,8.11,3.81,16.11,8.46,23.32,13.97Z"/><path class="cls-7" d="m426.3,608.26c11.56-5.44,13.91,9.13,4.35,13.16-9.55,4.03-17.71-1.04-20.22-6.79-2.51-5.75-4.17-17.59-.72-21.04s20.94-.5,16.6,14.66Z"/><path class="cls-10" d="m355.74,519.18c26.98,16.76,52.62,36.71,55.12,73.12-10.9,4.28-23.05,5.31-34.53,2.93l-1.01.09c-.97-10.47-2.44-19.17-3.96-25.65-4.03-17.18-9.54-33.93-15.96-50.37l.33-.13Z"/><path class="cls-10" d="m375.32,595.32c2.26,24.37,1.84,58.4-6.89,96.6-1.35,1.04-2.72,2.03-4.13,2.96-4.21,2.84-8.68,5.22-13.31,7.2-1.42.62-2.85,1.17-4.3,1.71l-.18-1.54c-8.79-3.77-18.94-9.39-19.44-18.95-.32-6.1,3.6-11.47,6.75-16.7,11.31-18.7,14.45-41.55,11.92-63.25-2.53-21.71-10.4-42.47-19.85-62.18-4.25-8.86-8.91-19.04-5.06-28.07,4.02-9.44,21.37-13.12,29.32-6.65l.05-.02c1.8,4.28,3.55,8.56,5.22,12.89,6.42,16.44,11.93,33.19,15.96,50.37,1.52,6.48,2.99,15.17,3.96,25.65Z"/><path class="cls-12" d="m351.79,49.16c2.22,53.36.68,92.26-9.25,147.93l.94,1.28c-1.28.94-2.56,1.9-3.84,2.85,2.16-7.52,3.93-18.09-6.46-19.59-10.38-1.52-11.95,8.17-12.94,13.49-.02-5.09-1.94-17.38-11.25-15.54-6.2,1.22-7.59,6.36-7.77,10.4-.65-15.04-1.55-30.08-2.7-45.08-2.74-36.05-6.85-71.95-12.15-107.77.32-.09.63-.18.95-.26,18.74,12.33,36.26,18.37,64.47,12.3Z"/><path class="cls-9" d="m228.8,575.07c-8.41-1.45-17.09-1.24-25.41.73-.66-2.11-1.39-4.21-2.17-6.28-3.07-8.11-7.1-15.88-12.72-22.34-.89-1.02-1.82-2.01-2.8-2.96,29.2-29.79,69.49-50.19,110.94-56.27l-.13-.9c0-3.83-.31-9.45-.3-13.29,2.36-.08,4.73-.18,7.08-.26,7.49-.27,14.97-.56,22.46-.84,3.02-.11,6.04-.21,9.06-.33,5.34,11.24,10.53,22.6,15.35,34.09l-.05.02c-7.95-6.48-25.3-2.8-29.32,6.65-3.85,9.04.81,19.21,5.06,28.07,9.45,19.71,17.32,40.46,19.85,62.18,2.53,21.7-.6,44.55-11.92,63.25-3.15,5.24-7.07,10.6-6.75,16.7.5,9.56,10.65,15.19,19.44,18.95l.18,1.54c-32.28,11.82-71.19,5.13-89.66-10.45-5.11-4.3-10.1-9.23-15.42-13.56-5.6-4.6-11.57-8.56-18.37-10.48,1.16-30.86,4.26-62.4,5.43-93.26l.15-.97Z"/><path class="cls-7" d="m325.77,472.66c-7.49.28-14.97.57-22.46.84v-.07c-.2-2.85-.83-11.22-1.09-14.78,8.08,1.41,15.85,2.18,23.31,2.43v.27c.01,2.56.21,8.68.24,11.31Z"/><path class="cls-7" d="m188.5,547.18c5.63,6.46,9.65,14.23,12.72,22.34-9.58,8.1-22.09,18.49-31.67,26.59,5.4,2.91,7.21,10.61,4.31,16.03-2.89,5.43-9.59,8.22-15.67,7.32-8.96-1.34-15.92-10.65-14.68-19.63,1.01-7.2,6.29-12.95,11.32-18.19,10.48-10.93,23.15-23.5,33.66-34.46Z"/></g><g><path class="cls-2" d="m452.58,342.3c22.32-11.34,28.85,11.79,25.12,25.08-2,7.09-13.53,29.12-32.25,20.76"/><path class="cls-2" d="m458.79,389.53c-17.15,27.37-72.14,88-165,67.46-92.86-20.54-118.69-61.37-125.93-88.19-.06-.22-.12-.44-.17-.66-7.48-28.45-3.33-61.57,10.43-87.54,11.87-22.39,28.64-43.87,46.16-62.92,2.95-3.21,9.01-11.43,12.32-19.23,12.88-30.36,37.63-46.02,61.52-53.53"/><path class="cls-2" d="m302.17,457.98c.22,3.05.93,12.4,1.14,15.45"/><path class="cls-2" d="m325.52,461.36c.03,2.58.23,8.82.26,11.4"/><path class="cls-2" d="m259.32,589.02c-15.22-12.77-36.6-17.83-55.92-13.23-3.69-11.61-8.98-23.07-17.69-31.58,32.06-32.71,77.49-54.08,123.16-57.64"/><path class="cls-2" d="m228.65,576.04c-1.16,30.86-4.26,62.4-5.43,93.26,13.23,3.74,23.28,15.18,33.79,24.04,22.91,19.32,77.27,24.99,111.41-1.42,12.48-54.63,7.99-100.71,2.94-122.25-7.92-33.81-21.61-65.98-36.53-97.34-12.87.48-25.74.95-38.6,1.43,0,3.83.3,9.46.3,13.29"/><path class="cls-2" d="m355.74,519.18c26.98,16.76,52.63,36.7,55.12,73.12-10.9,4.28-23.06,5.31-34.52,2.93"/><path class="cls-2" d="m409.7,593.6c3.44-3.44,20.95-.5,16.6,14.66,11.56-5.45,13.9,9.14,4.35,13.16s-17.72-1.04-20.23-6.78-4.16-17.6-.72-21.04Z"/><path class="cls-2" d="m188.72,546.95c-10.56,11.01-23.33,23.68-33.89,34.69-5.03,5.25-10.31,11-11.32,18.2-1.25,8.97,5.71,18.29,14.68,19.63,6.08.91,12.77-1.9,15.67-7.31s1.09-13.11-4.32-16.03c9.6-8.12,22.13-18.53,31.72-26.64"/><path class="cls-2" d="m228.03,251.4c15.95,2.06,31.9,4.12,47.84,6.18"/><path class="cls-2" d="m314.62,267.48c39.47,11.17,78.95,22.35,118.42,33.52"/><path class="cls-2" d="m244.52,365.26c7.03,5.63,14.07,11.25,21.1,16.88"/><path class="cls-3" d="m351.79,49.17c2.22,53.36.69,92.25-9.25,147.92"/><path class="cls-2" d="m464.42,211.26c1.63-23.68,3.3-50.23,4.93-73.91.91-13.18,1.79-26.69-1.9-39.37-6.83-23.48-28.09-39.99-50.22-50.4-40.46-19.04-87.88-22.82-130.85-10.45,7.74,52.24,12.92,104.68,15.05,157.45-.23-2.5-1.73-13.17,7.57-15s11.23,10.45,11.25,15.55c.98-5.32,2.56-15.01,12.94-13.5s8.61,12.07,6.45,19.6c13.99-10.47,27.54-20.27,43.89-26.45,16.35-6.18,37-6.28,54.12,4.95,4.57,4.27,8.92,8.83,13.04,13.64,29.72,34.68,43.7,80.55,34.63,125.31-2.19,9.07-5.39,20-7.9,29.39"/><path class="cls-2" d="m287.03,36.67c18.84,12.47,36.4,18.61,64.76,12.5s54.38-8.55,88.62,12.57"/></g></g></g></g></svg>