<?xml version="1.0" encoding="UTF-8"?><svg id="illust" xmlns="http://www.w3.org/2000/svg" viewBox="0 0 640 640"><defs><style>.cls-1{fill:lime;}.cls-2{fill:#fff;}.cls-3{fill:#ffc7af;}.cls-4{fill:#fedeb5;}.cls-5{fill:#9efe9d;}.cls-6{fill:#9e98ff;}.cls-7{fill:#cdfffe;}.cls-8{fill:#cdcdff;}.cls-9{fill:none;stroke:#000;stroke-linecap:round;stroke-linejoin:round;stroke-width:7px;}</style></defs><rect class="cls-2" width="640" height="640"/><g id="normal"><g><path class="cls-8" d="m463.09,136.7c-12.07-11.5-26.01-21.43-40.74-29.05l.25-.49c3.14-9.7,26.36,10.22,41.37,7.99,11.03-1.64,7.22-13.82,4.85-20.54-2.2-6.27-6.57-16.87-1.62-21.44l.38-.22c15.57,26.08,21.87,56.85,15.75,87.02-.31-.44-.63-.88-.96-1.32-5.61-7.77-12.11-15.15-19.28-21.95Z"/><path class="cls-3" d="m482.37,158.65l-.15.11c-.89,6.92-3.44,18.1-5.56,26.02l-.93.09c-1.65-3.59-4.35-6.39-8.27-7.24,2.02-14,.66-29.01-4.37-40.93,7.17,6.8,13.67,14.18,19.28,21.95Z"/><path class="cls-3" d="m475.73,184.87c2.27,4.93,2.54,11.36,1.17,16.22-1.24,4.42-6.85,15.67-16.04,18.47-3.29.99-7.03.91-11.19-.95l-.25-.19c5.76-7.64,9.3-14.4,11.52-18.9,3.2-6.5,5.39-14.03,6.52-21.89,3.92.85,6.62,3.65,8.27,7.24Z"/><path class="cls-7" d="m468.82,94.61c2.37,6.72,6.18,18.9-4.85,20.54-15.01,2.23-38.23-17.69-41.37-7.99l-.25.49c-7.26-3.77-14.71-6.97-22.23-9.53-32.33-10.99-69.08-11.55-102.12-20.17-10.03-2.62-19.97-5.55-29.81-8.79.75-.8,1.52-1.59,2.28-2.38,13.56-46.38,58.05-57.64,84.74-58.58,38.53-1.35,73.8,16.71,98.88,45.99,5.06,5.9,9.57,12.18,13.49,18.76l-.38.22c-4.95,4.57-.58,15.17,1.62,21.44Z"/><path class="cls-4" d="m467.46,177.63c-1.13,7.86-3.32,15.39-6.52,21.89-2.22,4.5-5.76,11.26-11.52,18.9-17.48,23.2-55.38,54.49-138.47,55.05l-.17.67c-69.58-18.01-89.63-50.29-95.45-71.85-.05-.19-.1-.37-.15-.56-6.31-24.01-2.81-51.98,8.81-73.9,11.2-21.12,27.55-41.26,44.2-58.67,9.84,3.24,19.78,6.17,29.81,8.79,33.04,8.62,69.79,9.18,102.12,20.17,7.52,2.56,14.97,5.76,22.23,9.53,14.73,7.62,28.67,17.55,40.74,29.05,5.03,11.92,6.39,26.93,4.37,40.93Z"/><path class="cls-3" d="m328.76,278.14c-2.34-.4-4.72-.87-7.12-1.4-3.75-.83-7.36-1.7-10.86-2.6l.17-.67c83.09-.56,120.99-31.85,138.47-55.05l.25.19c4.16,1.86,7.9,1.94,11.19.95l.08.23c-12.74,20.34-50.24,62.43-112.5,60.4-6.3-.21-12.86-.86-19.68-2.05Z"/><path class="cls-4" d="m433.51,404.44c9.76-4.59,11.74,7.71,3.67,11.11-8.06,3.4-14.95-.88-17.07-5.73-2.12-4.85-3.52-14.85-.61-17.76s17.68-.42,14.01,12.38Z"/><path class="cls-6" d="m412.26,591.59c4.26,3.86,18.12,19.01,14.23,29.22-3.89,10.21-16.37,17.34-23.57,11.72-7.21-5.61,2.13-12.14-7.95-34.06.31-.14.72-.32,1.22-.53,3.37-1.38,10.66-4.1,15.54-6.13.18-.07.36-.15.53-.22Z"/><path class="cls-4" d="m411.25,590.9l.48.91c-4.88,2.03-12.17,4.75-15.54,6.13l-.35-.8c-10.08-12.45-24.15-24.52-37.18-33.85h0c4.15-3.18,8.32-5.99,12.61-8.6,5.02-3.07,10.2-5.87,15.7-8.71l.43.84c14.46,11.15,19.47,25.48,23.85,44.08Z"/><path class="cls-8" d="m373.94,329.24c22.78,14.15,44.42,30.99,46.53,61.73-9.2,3.61-19.46,4.48-29.15,2.47l-.85.08c-.82-8.84-2.06-16.18-3.34-21.65-3.4-14.5-8.05-28.64-13.47-42.52l.28-.11Z"/><path class="cls-1" d="m381.43,477.97c15.66,15.39,23.77,38.15,21.36,59.98-5.61,2.85-10.84,5.46-15.82,8.03-5.5,2.84-10.68,5.64-15.7,8.71l-.19-.31c6.62-21.68,6.52-48.85-.95-70.25l-.21-.48c3.91-1.67,7.69-3.68,11.24-6.08l.27.4Z"/><path class="cls-8" d="m390.47,393.52c1.91,20.57,1.55,49.3-5.82,81.55-1.14.88-2.3,1.71-3.49,2.5-3.55,2.4-7.33,4.41-11.24,6.08-1.2.52-2.41.99-3.63,1.44l-.15-1.3c-7.42-3.18-15.99-7.93-16.41-16-.27-5.15,3.04-9.68,5.7-14.1,9.55-15.79,12.2-35.08,10.06-53.4-2.14-18.33-8.78-35.85-16.76-52.49-3.59-7.48-7.52-16.07-4.27-23.7,3.39-7.97,18.04-11.08,24.75-5.61l.04-.02c1.52,3.61,3,7.23,4.41,10.88,5.42,13.88,10.07,28.02,13.47,42.52,1.28,5.47,2.52,12.81,3.34,21.65Z"/><path class="cls-5" d="m358.66,563.28h0c-1.48,1.15-2.97,2.33-4.45,3.58-5.08-7.27-13.65-11.99-22.51-12.39-8.86-.41-17.82,3.51-23.55,10.29-7.57-6.46-15.73-12.21-24.35-17.17-12.58-7.26-26.14-12.83-40.19-16.52-5.85-1.54-11.8-2.75-17.79-3.61,12.17-24.25,29.89-45.7,51.41-62.22l.35-.42c4.49,3.66,8.71,7.82,13.02,11.45,15.59,13.15,48.44,18.8,75.69,8.82,1.22-.45,2.43-.92,3.63-1.44l.21.48c7.47,21.4,7.57,48.57.95,70.25l.19.31c-4.29,2.61-8.46,5.42-12.61,8.59Z"/><path class="cls-7" d="m266.78,376.42c-7.1-1.22-14.43-1.05-21.45.62-.56-1.78-1.17-3.55-1.83-5.3-2.59-6.85-5.99-13.41-10.74-18.86-.75-.86-1.54-1.7-2.36-2.5,24.65-25.15,58.66-42.37,93.66-47.5l-.11-.76c0-3.23-.26-7.98-.25-11.22,1.99-.07,3.99-.15,5.98-.22,6.32-.23,12.64-.47,18.96-.71,2.55-.09,5.1-.18,7.65-.28,4.51,9.49,8.89,19.08,12.96,28.78l-.04.02c-6.71-5.47-21.36-2.36-24.75,5.61-3.25,7.63.68,16.22,4.27,23.7,7.98,16.64,14.62,34.16,16.76,52.49,2.14,18.32-.51,37.61-10.06,53.4-2.66,4.42-5.97,8.95-5.7,14.1.42,8.07,8.99,12.82,16.41,16l.15,1.3c-27.25,9.98-60.1,4.33-75.69-8.82-4.31-3.63-8.53-7.79-13.02-11.45-4.73-3.88-9.77-7.23-15.51-8.85.98-26.05,3.6-52.68,4.58-78.73l.13-.82Z"/><path class="cls-4" d="m348.64,289.97c-6.32.24-12.64.48-18.96.71v-.06c-.17-2.41-.7-9.47-.92-12.48,6.82,1.19,13.38,1.84,19.68,2.05v.23c0,2.16.18,7.33.2,9.55Z"/><path class="cls-4" d="m283.8,547.59l-.1.17c-16.2,14.74-30.27,29.33-44.09,47.31l-2.59.34c-3.04-2.47-6.87-4.52-9.8-7.05l.85-1.05c-.65-18.5,3.71-41.05,15.33-55.45l.21-.79c14.05,3.69,27.61,9.26,40.19,16.52Z"/><path class="cls-4" d="m232.76,352.88c4.75,5.45,8.15,12.01,10.74,18.86-8.09,6.84-18.65,15.61-26.74,22.45,4.56,2.46,6.09,8.96,3.64,13.53-2.44,4.58-8.1,6.94-13.23,6.18-7.56-1.13-13.44-8.99-12.39-16.57.85-6.08,5.31-10.93,9.56-15.36,8.85-9.23,19.54-19.84,28.42-29.09Z"/><path class="cls-6" d="m237.02,595.41c.21.16.4.33.6.5-.66,6.72-1.13,18.47-2.13,20.4-2.31,4.48-8.51,5.68-13.25,3.96-4.74-1.71-22.68-21.2-28.15-27.16-3.37-3.67-6.98-8.63-4.94-13.18,1.95-4.36,8.15-5.13,12.51-3.17,4.36,1.97,7.57,5.77,11.31,8.76s9.84,4.69,14.25,2.84c2.93,2.53,6.76,4.58,9.8,7.05Z"/></g><g><path class="cls-9" d="m455.7,179.92c18.84-9.57,24.36,9.95,21.2,21.17-1.68,5.99-11.42,24.58-27.22,17.52"/><path class="cls-9" d="m482.22,158.76c-.89,6.92-3.44,18.1-5.56,26.02"/><path class="cls-9" d="m222.49,51.63c24.41,10.77,49.69,19.58,75.51,26.32,33.05,8.62,69.79,9.18,102.13,20.17,32.33,10.99,63.5,33.96,83.21,61.85,7.66-37.79-4.15-76.51-29.23-105.79-25.09-29.27-60.35-47.34-98.88-45.99-26.69.94-71.18,12.2-84.74,58.58-17.41,17.94-34.77,38.97-46.48,61.05s-15.12,49.89-8.81,73.9c.05.18.1.37.15.55,6.11,22.64,27.91,57.11,106.31,74.45s124.82-33.84,139.3-56.95"/><path class="cls-9" d="m328.72,277.58c.18,2.57.78,10.47.97,13.04"/><path class="cls-9" d="m348.43,280.42c.03,2.18.19,7.45.22,9.62"/><path class="cls-9" d="m292.54,388.2c-12.85-10.78-30.9-15.05-47.21-11.17-3.11-9.8-7.58-19.47-14.94-26.66,27.07-27.61,65.42-45.66,103.97-48.66"/><path class="cls-9" d="m266.65,377.24c-.98,26.06-3.6,52.68-4.58,78.73,11.17,3.15,19.65,12.81,28.53,20.29,19.34,16.31,65.23,21.09,94.05-1.2,10.54-46.12,6.74-85.02,2.48-103.2-6.69-28.54-18.25-55.7-30.84-82.17-10.86.4-21.73.8-32.59,1.21,0,3.24.26,7.99.25,11.22"/><path class="cls-9" d="m373.94,329.24c22.78,14.15,44.43,30.99,46.53,61.73-9.2,3.61-19.46,4.49-29.15,2.48"/><path class="cls-9" d="m419.5,392.06c2.9-2.9,17.69-.42,14.01,12.38,9.76-4.6,11.74,7.71,3.67,11.11s-14.96-.88-17.08-5.73c-2.12-4.85-3.51-14.86-.61-17.76Z"/><path class="cls-9" d="m232.95,352.68c-8.91,9.3-19.7,19.99-28.61,29.28-4.25,4.43-8.71,9.28-9.55,15.36-1.05,7.58,4.82,15.44,12.39,16.57,5.13.77,10.78-1.6,13.23-6.17s.92-11.07-3.64-13.53c8.1-6.85,18.68-15.64,26.78-22.49"/><path class="cls-9" d="m277.23,465.24c-21.52,16.53-39.24,37.97-51.41,62.22,30.22,4.36,59.12,17.46,82.33,37.29,5.73-6.78,14.69-10.69,23.55-10.29s17.43,5.12,22.51,12.39c14.88-12.48,29.6-19.25,48.58-28.91,2.41-21.83-5.7-44.58-21.36-59.98"/><path class="cls-9" d="m358.64,563.27c13.04,9.33,25.76,18.9,35.85,31.36"/><path class="cls-9" d="m387.4,546.82c14.46,11.16,19.61,23.74,23.99,42.34"/><path class="cls-9" d="m394.97,598.47c2.46-1.14,11.73-4.54,17.29-6.88,4.26,3.86,18.12,19.01,14.23,29.22s-16.37,17.34-23.57,11.72,2.13-12.14-7.95-34.06Z"/><path class="cls-9" d="m283.7,547.76c-16.21,14.74-30.28,29.33-44.09,47.31"/><path class="cls-9" d="m243.4,531.86c-11.62,14.4-15.98,36.95-15.33,55.44"/><path class="cls-9" d="m227.22,588.36c3.13,2.7,7.27,4.85,10.4,7.55-.66,6.72-1.13,18.46-2.13,20.4-2.31,4.48-8.52,5.68-13.25,3.96s-22.68-21.2-28.15-27.16c-3.37-3.67-6.98-8.63-4.95-13.18,1.96-4.37,8.15-5.14,12.51-3.17s7.57,5.77,11.31,8.76c3.74,2.99,9.84,4.69,14.25,2.84Z"/><path class="cls-9" d="m266.13,103.18c13.46,1.74,26.93,3.48,40.39,5.21"/><path class="cls-9" d="m339.23,116.75c33.32,9.43,66.65,18.87,99.97,28.3"/><path class="cls-9" d="m280.05,199.3c5.94,4.75,11.88,9.5,17.81,14.25"/></g></g></svg>