<?xml version="1.0" encoding="UTF-8"?><svg id="illust" xmlns="http://www.w3.org/2000/svg" viewBox="0 0 304.08 722.01"><defs><style>.cls-1,.cls-2{fill:none;stroke:#000;stroke-linecap:round;stroke-linejoin:round;}.cls-3{fill:#ffc7af;}.cls-4{fill:#fedeb5;}.cls-5{fill:#999;}.cls-6{fill:#9e98ff;}.cls-7{fill:#cdfffe;}.cls-8{fill:#cdcdff;}.cls-9{fill:#18510b;}.cls-10{fill:#217f0d;}.cls-11{fill:#7a4303;}.cls-2{stroke-width:7px;}</style></defs><g><g><g><path class="cls-10" d="m256.69,127.99c.42-.35.82-.74,1.18-1.15-.43.35-.83.73-1.18,1.15Zm-97.26.98c-1.46,5.76-9.66,8.65-14.32,4.86-3.4-2.76-3.7-9.58-2.11-13.36,1.1-2.61,3.3-4.74,5.94-5.76-2.44.89-5.29.55-7.46-.87-1.85-1.21-3.17-3.17-3.67-5.29-.37-1.59-.28-3.28.42-4.8.81-1.77,2.15-3.23,3.57-4.54.84-.76,3.36-3.58,4.46-3.65-1.92.13-3.97.3-5.95.22-4.23-.15-8.14-1.37-9.87-6.24-1.85-5.23,1.63-11.61,6.89-13.14.34-.05.68-.13,1.02-.23-.35.06-.69.13-1.02.23-6.25,1.13-13.13-3.36-14.37-9.65-.74-3.75.62-7.69,3.13-10.5,2.85-3.19,6.54-2.76,10.53-3.49-3.86-.22-7.36-3.31-8.05-7.1-.7-3.8,1.47-7.93,4.99-9.51,3.29-1.46,7.44-.57,9.91,2.03.15.21.33.4.51.59-.16-.21-.33-.41-.51-.59-3.19-4-2.29-10.72,1.99-13.59,5.39-3.61,9.97,1.64,14.34,4.58-3.94-3.1-4.71-9.5-1.62-13.45,3.09-3.94,9.5-4.72,13.45-1.63,2.33,1.83,3.68,4.62,4.64,7.42-2.08-6.1,5.18-15.56,11.18-16.2,6.07-.65,12.16,4.41,12.62,10.5-.52-6.14,4.84-12.13,10.99-12.31,6.15-.17,11.84,5.51,11.66,11.67,1.09-5.07,6.87-8.58,11.87-7.22,4.99,1.36,8.19,7.32,6.55,12.24,1.88-4.59,7.48-7.27,12.22-5.87,4.75,1.41,7.98,6.72,7.05,11.58,4.32-2.67,10.49-1.78,13.88,2s3.6,10.02.47,14.01c4.24-2.04,9.91-.34,12.34,3.7,2.42,4.04,1.25,9.84-2.55,12.63,5.26-.18,10.32,4.04,11.09,9.25.76,5.21-2.87,10.7-7.95,12.05,4.82-.08,9.32,4.07,9.62,8.88.29,4.82-3.68,9.5-8.47,10,4.79.87,8.68,5.35,8.87,10.22s-3.34,9.63-8.05,10.88c6.07.88,10.59,7.59,9.13,13.54-1.46,5.96-8.57,9.82-14.36,7.79,3.12,4.09.66,10.78-3.95,12.57-.63.25-1.29.41-1.99.45-5.83.37-10.46-7.12-7.53-12.17-3.85,3.7-10.79,3.42-14.32-.59-3.15-3.58-3.01-9.5.04-13.11-3.25,2.7-8.09,3.46-11.97,1.72-4.39-1.97-7.19-6.98-6.58-11.76-1.15,4.03-5.23,7.01-9.41,6.86-4.18-.14-8.05-3.39-8.92-7.49.12,4.78-3.17,9.44-7.7,10.94-4.54,1.5-9.95-.29-12.7-4.2,2.87,5.52-.44,13.29-6.41,15.03-5.98,1.75-12.95-3.01-13.5-9.21.56,5.86-4.96,11.52-10.83,11.09-5.68-.41-10.24-6.43-9.23-12.01Z"/><path class="cls-10" d="m289.98,171.39c9.96,22.64,13.31,47.82,8.29,72.58-1.85,7.66-4.55,16.89-6.67,24.81l-.93.09c-1.85-4.03-5.03-7.07-9.76-7.46,4.87-17.27,8.8-39.68,6.52-55.5-1.78-12.33-10.95-38.65,2.25-34.39l.3-.13Z"/><path class="cls-10" d="m290.67,268.87c2.27,4.93,2.54,11.36,1.17,16.22-1.24,4.42-6.85,15.67-16.04,18.47-3.29.99-7.03.91-11.19-.95l-2.42-1.14c5.63-7.86,9.07-14.79,11.31-19.33,2.26-4.58,4.96-11.99,7.41-20.73,4.73.39,7.91,3.43,9.76,7.46Z"/><path class="cls-10" d="m284.53,442.72c2.07,2.71,4.13,5.42,6.2,8.12-11.75,12.27-23.49,24.54-35.24,36.8l-1.5.02c-1.41-.44-3.26-.29-5.54.78.79-2.76.73-5.03.1-6.88l.34-.13c11.88-12.9,23.76-25.81,35.64-38.71Z"/><path class="cls-10" d="m280.91,261.41c-2.45,8.74-5.15,16.15-7.41,20.73-2.24,4.54-5.68,11.47-11.31,19.33-16.89,23.57-53.47,55.45-136.3,56l-.17.67c-69.58-18.01-89.63-50.29-95.45-71.85-.05-.19-.1-.37-.15-.56-6.31-24.01-2.81-51.98,8.81-73.9,10.02-18.9,24.18-37.03,38.97-53.11,2.49-2.71,7.61-9.65,10.4-16.23,10.87-25.63,31.77-38.86,51.94-45.19l.07-1.52c1.98.08,4.03-.09,5.95-.22-1.1.07-3.62,2.89-4.46,3.65-1.42,1.31-2.76,2.77-3.57,4.54-.7,1.52-.79,3.21-.42,4.8.5,2.12,1.82,4.08,3.67,5.29,2.17,1.42,5.02,1.76,7.46.87-2.64,1.02-4.84,3.15-5.94,5.76-1.59,3.78-1.29,10.6,2.11,13.36,4.66,3.79,12.86.9,14.32-4.86-1.01,5.58,3.55,11.6,9.23,12.01,5.87.43,11.39-5.23,10.83-11.09.55,6.2,7.52,10.96,13.5,9.21,5.97-1.74,9.28-9.51,6.41-15.03,2.75,3.91,8.16,5.7,12.7,4.2,4.53-1.5,7.82-6.16,7.7-10.94.87,4.1,4.74,7.35,8.92,7.49,4.18.15,8.26-2.83,9.41-6.86-.61,4.78,2.19,9.79,6.58,11.76,3.88,1.74,8.72.98,11.97-1.72-3.05,3.61-3.19,9.53-.04,13.11,3.53,4.01,10.47,4.29,14.32.59-2.93,5.05,1.7,12.54,7.53,12.17.7-.04,1.36-.2,1.99-.45l.21.53c3.54,5.6,6.65,11.43,9.29,17.44l-.3.13c-13.2-4.26-4.03,22.06-2.25,34.39,2.28,15.82-1.65,38.23-6.52,55.5Z"/><path class="cls-10" d="m143.7,362.14c-2.34-.4-4.72-.87-7.12-1.4-3.75-.83-7.36-1.7-10.86-2.6l.17-.67c82.83-.55,119.41-32.43,136.3-56l2.42,1.14c4.16,1.86,7.9,1.94,11.19.95l.08.23c-12.74,20.34-50.24,62.43-112.5,60.4-6.3-.21-12.86-.86-19.68-2.05Z"/><path class="cls-10" d="m274.62,526.97c-4.61,24.58-25.34,45.31-49.92,49.92-3.49-17.19-9.28-36.14-19.74-50.24.04-.41.08-.81.12-1.22,6.55-6.17,12.04-10.13,18.65-16.43,2.62,1.53,5.33,3.04,8.1,4.49,13.34,6.96,28.18,12.59,42.79,13.48Z"/><path class="cls-10" d="m243.98,500.55c-3.03-.55-5.56-2.14-7.26-4.11-.71-.82-1.27-1.71-1.67-2.62-2.12-4.85-3.52-14.85-.61-17.76.18-.18.39-.33.65-.47,3.06-1.61,11.39-.25,13.46,5.97.63,1.85.69,4.12-.1,6.88,2.28-1.07,4.13-1.22,5.54-.78,4.6,1.45,4.32,9.28-1.87,11.89-2.93,1.23-5.7,1.46-8.14,1Z"/><path class="cls-10" d="m227.2,675.59c4.26,3.86,18.12,19.01,14.23,29.22-3.89,10.21-16.37,17.34-23.57,11.72-7.21-5.61,2.13-12.14-7.95-34.06.46-.21,1.16-.51,2.03-.86,3.6-1.44,10.11-3.88,14.62-5.76.22-.08.43-.17.64-.26Z"/><path class="cls-10" d="m243.98,500.55c-3.54,3.71-8.56,9.1-12.05,12.75l-.1.19c-2.77-1.45-5.48-2.96-8.1-4.49l.24-.51c3.69-3.45,7.39-6.9,11.08-10.35l1.67-1.7c1.7,1.97,4.23,3.56,7.26,4.11Z"/><path class="cls-10" d="m235.41,474.97c-.16.06-.33.13-.49.19-9.07,3.45-19.14,4.25-28.66,2.28l-.85.08c-.82-8.84-2.06-16.18-3.34-21.65-3.4-14.5-8.05-28.64-13.47-42.52l.28-.11c22.78,14.15,44.42,30.99,46.53,61.73Z"/><path class="cls-10" d="m226.41,675.49l.15.36c-4.51,1.88-11.02,4.32-14.62,5.76l-.6-1.04c-10.08-12.45-24.71-23.95-37.74-33.28,4.15-3.18,8.32-5.99,12.61-8.6,5.02-3.07,10.2-5.87,15.7-8.71l.43.84c14.46,11.15,19.69,26.07,24.07,44.67Z"/><path class="cls-10" d="m196.37,561.97c15.66,15.39,23.77,38.15,21.36,59.98-5.61,2.85-10.84,5.46-15.82,8.03-5.5,2.84-10.68,5.64-15.7,8.71l-.19-.31c6.62-21.68,6.52-48.85-.95-70.25l-.21-.48c3.91-1.67,7.69-3.68,11.24-6.08l.27.4Z"/><path class="cls-10" d="m205.41,477.52c1.21,13.07,1.51,29.44-.33,47.91-.2.18-.41.37-.61.57.16.21.33.43.49.65-1.06,10.24-2.79,21.11-5.37,32.42-1.14.88-2.3,1.71-3.49,2.5-3.55,2.4-7.33,4.41-11.24,6.08-1.2.52-2.41.99-3.63,1.44l-.15-1.3c-7.42-3.18-15.99-7.93-16.41-16-.27-5.15,3.04-9.68,5.7-14.1,9.55-15.79,12.2-35.08,10.06-53.4-2.14-18.33-8.78-35.85-16.76-52.49-3.59-7.48-7.52-16.07-4.27-23.7,3.39-7.97,18.04-11.08,24.75-5.61l.04-.02c1.52,3.61,3,7.23,4.41,10.88,5.42,13.88,10.07,28.02,13.47,42.52,1.28,5.47,2.52,12.81,3.34,21.65Z"/><path class="cls-10" d="m205.08,525.43c-.04.41-.08.81-.12,1.22-.16-.22-.33-.44-.49-.65.2-.2.41-.39.61-.57Z"/><path class="cls-10" d="m173.6,647.29c-1.48,1.14-2.97,2.32-4.45,3.57-5.08-7.27-13.65-11.99-22.51-12.39-8.86-.41-17.82,3.51-23.55,10.29-7.57-6.46-15.73-12.21-24.35-17.17-12.58-7.26-26.14-12.83-40.19-16.52-5.85-1.54-11.8-2.75-17.79-3.61,12.17-24.25,29.89-45.7,51.41-62.22l.35-.42c4.49,3.66,8.71,7.82,13.02,11.45,15.59,13.15,48.44,18.8,75.69,8.82,1.22-.45,2.43-.92,3.63-1.44l.21.48c7.47,21.4,7.57,48.57.95,70.25l.19.31c-4.29,2.61-8.46,5.42-12.61,8.6Z"/><path class="cls-10" d="m81.72,460.42c-7.1-1.22-14.43-1.05-21.45.62-.56-1.78-1.17-3.55-1.83-5.3-2.59-6.85-5.99-13.41-10.74-18.86-.75-.86-1.54-1.7-2.36-2.5,24.65-25.15,58.66-42.37,93.66-47.5l-.11-.76c0-3.23-.26-7.98-.25-11.22,1.99-.07,3.99-.15,5.98-.22,6.32-.23,12.64-.47,18.96-.71,2.55-.09,5.1-.18,7.65-.28,4.51,9.49,8.89,19.08,12.96,28.78l-.04.02c-6.71-5.47-21.36-2.36-24.75,5.61-3.25,7.63.68,16.22,4.27,23.7,7.98,16.64,14.62,34.16,16.76,52.49,2.14,18.32-.51,37.61-10.06,53.4-2.66,4.42-5.97,8.95-5.7,14.1.42,8.07,8.99,12.82,16.41,16l.15,1.3c-27.25,9.98-60.1,4.33-75.69-8.82-4.31-3.63-8.53-7.79-13.02-11.45-4.73-3.88-9.77-7.23-15.51-8.85.98-26.05,3.6-52.68,4.58-78.73l.13-.82Z"/><path class="cls-10" d="m163.58,373.97c-6.32.24-12.64.48-18.96.71v-.06c-.17-2.41-.7-9.47-.92-12.48,6.82,1.19,13.38,1.84,19.68,2.05v.23c0,2.16.18,7.33.2,9.55Z"/><path class="cls-10" d="m98.74,631.59l-.1.17c-16.2,14.74-30.27,29.33-44.09,47.31l-2.59.34c-3.04-2.47-6.87-4.52-9.8-7.05l.85-1.05c-.65-18.5,3.71-41.05,15.33-55.45l.21-.79c14.05,3.69,27.61,9.26,40.19,16.52Z"/><path class="cls-10" d="m47.7,436.88c4.75,5.45,8.15,12.01,10.74,18.86-8.09,6.84-18.65,15.61-26.74,22.45,4.56,2.46,6.09,8.96,3.64,13.53-2.44,4.58-8.1,6.94-13.23,6.18-7.56-1.13-13.44-8.99-12.39-16.57.85-6.08,5.31-10.93,9.56-15.36,8.85-9.23,19.54-19.84,28.42-29.09Z"/><path class="cls-10" d="m51.96,679.41c.21.16.4.33.6.5-.66,6.72-1.13,18.47-2.13,20.4-2.31,4.48-8.51,5.68-13.25,3.96-4.74-1.71-22.68-21.2-28.15-27.16-3.37-3.67-6.98-8.63-4.94-13.18,1.95-4.36,8.15-5.13,12.51-3.17,4.36,1.97,7.57,5.77,11.31,8.76s9.84,4.69,14.25,2.84c2.93,2.53,6.76,4.58,9.8,7.05Z"/></g><g><path class="cls-10" d="m137.33,76.4c-5.26,1.53-8.74,7.91-6.89,13.14,1.73,4.87,5.64,6.09,9.87,6.24,1.98.08,4.03-.09,5.95-.22-1.1.07-3.62,2.89-4.46,3.65-1.42,1.31-2.76,2.77-3.57,4.54-.7,1.52-.79,3.21-.42,4.8.5,2.12,1.82,4.08,3.67,5.29,2.17,1.42,5.02,1.76,7.46.87-2.64,1.02-4.84,3.15-5.94,5.76-1.59,3.78-1.29,10.6,2.11,13.36,4.66,3.79,12.86.9,14.32-4.86"/><path class="cls-10" d="m137.33,76.4c.34-.05.68-.13,1.02-.23-.35.06-.69.13-1.02.23Z"/><path class="cls-10" d="m143.47,38.18c-2.47-2.6-6.62-3.49-9.91-2.03-3.52,1.58-5.69,5.71-4.99,9.51.69,3.79,4.19,6.88,8.05,7.1-3.99.73-7.68.3-10.53,3.49-2.51,2.81-3.87,6.75-3.13,10.5,1.24,6.29,8.12,10.78,14.37,9.65"/><path class="cls-10" d="m143.47,38.18c.15.21.33.4.51.59-.16-.21-.33-.41-.51-.59Z"/><path class="cls-10" d="m287.69,79.54c5.08-1.35,8.71-6.84,7.95-12.05-.77-5.21-5.83-9.43-11.09-9.25,3.8-2.79,4.97-8.59,2.55-12.63-2.43-4.04-8.1-5.74-12.34-3.7,3.13-3.99,2.92-10.23-.47-14.01s-9.56-4.67-13.88-2c.93-4.86-2.3-10.17-7.05-11.58-4.74-1.4-10.34,1.28-12.22,5.87,1.64-4.92-1.56-10.88-6.55-12.24-5-1.36-10.78,2.15-11.87,7.22.18-6.16-5.51-11.84-11.66-11.67-6.15.18-11.51,6.17-10.99,12.31-.46-6.09-6.55-11.15-12.62-10.5-6,.64-13.26,10.1-11.18,16.2-.96-2.8-2.31-5.59-4.64-7.42-3.95-3.09-10.36-2.31-13.45,1.63-3.09,3.95-2.32,10.35,1.62,13.45-4.37-2.94-8.95-8.19-14.34-4.58-4.28,2.87-5.18,9.59-1.99,13.59"/><path class="cls-10" d="m256.68,128c-3.05,3.61-3.19,9.53-.04,13.11,3.53,4.01,10.47,4.29,14.32.59-2.93,5.05,1.7,12.54,7.53,12.17.7-.04,1.36-.2,1.99-.45,4.61-1.79,7.07-8.48,3.95-12.57,5.79,2.03,12.9-1.83,14.36-7.79,1.46-5.95-3.06-12.66-9.13-13.54,4.71-1.25,8.24-6.01,8.05-10.88s-4.08-9.35-8.87-10.22c4.79-.5,8.76-5.18,8.47-10-.3-4.81-4.8-8.96-9.62-8.88h-.01"/><path class="cls-10" d="m256.69,127.99c.42-.35.82-.74,1.18-1.15-.43.35-.83.73-1.18,1.15Z"/><path class="cls-10" d="m256.69,127.99h-.01"/><path class="cls-10" d="m159.54,128.45c-.03.18-.07.35-.11.52-1.01,5.58,3.55,11.6,9.23,12.01,5.87.43,11.39-5.23,10.83-11.09.55,6.2,7.52,10.96,13.5,9.21,5.97-1.74,9.28-9.51,6.41-15.03,2.75,3.91,8.16,5.7,12.7,4.2,4.53-1.5,7.82-6.16,7.7-10.94.87,4.1,4.74,7.35,8.92,7.49,4.18.15,8.26-2.83,9.41-6.86-.61,4.78,2.19,9.79,6.58,11.76,3.88,1.74,8.72.98,11.97-1.72"/></g></g><g><g><path class="cls-10" d="m256.69,127.99c.42-.35.82-.74,1.18-1.15-.43.35-.83.73-1.18,1.15Zm-97.26.98c-1.46,5.76-9.66,8.65-14.32,4.86-3.4-2.76-3.7-9.58-2.11-13.36,1.1-2.61,3.3-4.74,5.94-5.76-2.44.89-5.29.55-7.46-.87-1.85-1.21-3.17-3.17-3.67-5.29-.37-1.59-.28-3.28.42-4.8.81-1.77,2.15-3.23,3.57-4.54.84-.76,3.36-3.58,4.46-3.65-1.92.13-3.97.3-5.95.22-4.23-.15-8.14-1.37-9.87-6.24-1.85-5.23,1.63-11.61,6.89-13.14.34-.05.68-.13,1.02-.23-.35.06-.69.13-1.02.23-6.25,1.13-13.13-3.36-14.37-9.65-.74-3.75.62-7.69,3.13-10.5,2.85-3.19,6.54-2.76,10.53-3.49-3.86-.22-7.36-3.31-8.05-7.1-.7-3.8,1.47-7.93,4.99-9.51,3.29-1.46,7.44-.57,9.91,2.03.15.21.33.4.51.59-.16-.21-.33-.41-.51-.59-3.19-4-2.29-10.72,1.99-13.59,5.39-3.61,9.97,1.64,14.34,4.58-3.94-3.1-4.71-9.5-1.62-13.45,3.09-3.94,9.5-4.72,13.45-1.63,2.33,1.83,3.68,4.62,4.64,7.42-2.08-6.1,5.18-15.56,11.18-16.2,6.07-.65,12.16,4.41,12.62,10.5-.52-6.14,4.84-12.13,10.99-12.31,6.15-.17,11.84,5.51,11.66,11.67,1.09-5.07,6.87-8.58,11.87-7.22,4.99,1.36,8.19,7.32,6.55,12.24,1.88-4.59,7.48-7.27,12.22-5.87,4.75,1.41,7.98,6.72,7.05,11.58,4.32-2.67,10.49-1.78,13.88,2s3.6,10.02.47,14.01c4.24-2.04,9.91-.34,12.34,3.7,2.42,4.04,1.25,9.84-2.55,12.63,5.26-.18,10.32,4.04,11.09,9.25.76,5.21-2.87,10.7-7.95,12.05,4.82-.08,9.32,4.07,9.62,8.88.29,4.82-3.68,9.5-8.47,10,4.79.87,8.68,5.35,8.87,10.22s-3.34,9.63-8.05,10.88c6.07.88,10.59,7.59,9.13,13.54-1.46,5.96-8.57,9.82-14.36,7.79,3.12,4.09.66,10.78-3.95,12.57-.63.25-1.29.41-1.99.45-5.83.37-10.46-7.12-7.53-12.17-3.85,3.7-10.79,3.42-14.32-.59-3.15-3.58-3.01-9.5.04-13.11-3.25,2.7-8.09,3.46-11.97,1.72-4.39-1.97-7.19-6.98-6.58-11.76-1.15,4.03-5.23,7.01-9.41,6.86-4.18-.14-8.05-3.39-8.92-7.49.12,4.78-3.17,9.44-7.7,10.94-4.54,1.5-9.95-.29-12.7-4.2,2.87,5.52-.44,13.29-6.41,15.03-5.98,1.75-12.95-3.01-13.5-9.21.56,5.86-4.96,11.52-10.83,11.09-5.68-.41-10.24-6.43-9.23-12.01Z"/><path class="cls-3" d="m289.98,171.39c9.96,22.64,13.31,47.82,8.29,72.58-1.85,7.66-4.55,16.89-6.67,24.81l-.93.09c-1.85-4.03-5.03-7.07-9.76-7.46,4.87-17.27,8.8-39.68,6.52-55.5-1.78-12.33-10.95-38.65,2.25-34.39l.3-.13Z"/><path class="cls-3" d="m290.67,268.87c2.27,4.93,2.54,11.36,1.17,16.22-1.24,4.42-6.85,15.67-16.04,18.47-3.29.99-7.03.91-11.19-.95l-2.42-1.14c5.63-7.86,9.07-14.79,11.31-19.33,2.26-4.58,4.96-11.99,7.41-20.73,4.73.39,7.91,3.43,9.76,7.46Z"/><path class="cls-11" d="m284.53,442.72c2.07,2.71,4.13,5.42,6.2,8.12-11.75,12.27-23.49,24.54-35.24,36.8l-1.5.02c-1.41-.44-3.26-.29-5.54.78.79-2.76.73-5.03.1-6.88l.34-.13c11.88-12.9,23.76-25.81,35.64-38.71Z"/><path class="cls-4" d="m280.91,261.41c-2.45,8.74-5.15,16.15-7.41,20.73-2.24,4.54-5.68,11.47-11.31,19.33-16.89,23.57-53.47,55.45-136.3,56l-.17.67c-69.58-18.01-89.63-50.29-95.45-71.85-.05-.19-.1-.37-.15-.56-6.31-24.01-2.81-51.98,8.81-73.9,10.02-18.9,24.18-37.03,38.97-53.11,2.49-2.71,7.61-9.65,10.4-16.23,10.87-25.63,31.77-38.86,51.94-45.19l.07-1.52c1.98.08,4.03-.09,5.95-.22-1.1.07-3.62,2.89-4.46,3.65-1.42,1.31-2.76,2.77-3.57,4.54-.7,1.52-.79,3.21-.42,4.8.5,2.12,1.82,4.08,3.67,5.29,2.17,1.42,5.02,1.76,7.46.87-2.64,1.02-4.84,3.15-5.94,5.76-1.59,3.78-1.29,10.6,2.11,13.36,4.66,3.79,12.86.9,14.32-4.86-1.01,5.58,3.55,11.6,9.23,12.01,5.87.43,11.39-5.23,10.83-11.09.55,6.2,7.52,10.96,13.5,9.21,5.97-1.74,9.28-9.51,6.41-15.03,2.75,3.91,8.16,5.7,12.7,4.2,4.53-1.5,7.82-6.16,7.7-10.94.87,4.1,4.74,7.35,8.92,7.49,4.18.15,8.26-2.83,9.41-6.86-.61,4.78,2.19,9.79,6.58,11.76,3.88,1.74,8.72.98,11.97-1.72-3.05,3.61-3.19,9.53-.04,13.11,3.53,4.01,10.47,4.29,14.32.59-2.93,5.05,1.7,12.54,7.53,12.17.7-.04,1.36-.2,1.99-.45l.21.53c3.54,5.6,6.65,11.43,9.29,17.44l-.3.13c-13.2-4.26-4.03,22.06-2.25,34.39,2.28,15.82-1.65,38.23-6.52,55.5Z"/><path class="cls-3" d="m143.7,362.14c-2.34-.4-4.72-.87-7.12-1.4-3.75-.83-7.36-1.7-10.86-2.6l.17-.67c82.83-.55,119.41-32.43,136.3-56l2.42,1.14c4.16,1.86,7.9,1.94,11.19.95l.08.23c-12.74,20.34-50.24,62.43-112.5,60.4-6.3-.21-12.86-.86-19.68-2.05Z"/><path class="cls-5" d="m274.62,526.97c-4.61,24.58-25.34,45.31-49.92,49.92-3.49-17.19-9.28-36.14-19.74-50.24.04-.41.08-.81.12-1.22,6.55-6.17,12.04-10.13,18.65-16.43,2.62,1.53,5.33,3.04,8.1,4.49,13.34,6.96,28.18,12.59,42.79,13.48Z"/><path class="cls-4" d="m243.98,500.55c-3.03-.55-5.56-2.14-7.26-4.11-.71-.82-1.27-1.71-1.67-2.62-2.12-4.85-3.52-14.85-.61-17.76.18-.18.39-.33.65-.47,3.06-1.61,11.39-.25,13.46,5.97.63,1.85.69,4.12-.1,6.88,2.28-1.07,4.13-1.22,5.54-.78,4.6,1.45,4.32,9.28-1.87,11.89-2.93,1.23-5.7,1.46-8.14,1Z"/><path class="cls-6" d="m227.2,675.59c4.26,3.86,18.12,19.01,14.23,29.22-3.89,10.21-16.37,17.34-23.57,11.72-7.21-5.61,2.13-12.14-7.95-34.06.46-.21,1.16-.51,2.03-.86,3.6-1.44,10.11-3.88,14.62-5.76.22-.08.43-.17.64-.26Z"/><path class="cls-11" d="m243.98,500.55c-3.54,3.71-8.56,9.1-12.05,12.75l-.1.19c-2.77-1.45-5.48-2.96-8.1-4.49l.24-.51c3.69-3.45,7.39-6.9,11.08-10.35l1.67-1.7c1.7,1.97,4.23,3.56,7.26,4.11Z"/><path class="cls-8" d="m235.41,474.97c-.16.06-.33.13-.49.19-9.07,3.45-19.14,4.25-28.66,2.28l-.85.08c-.82-8.84-2.06-16.18-3.34-21.65-3.4-14.5-8.05-28.64-13.47-42.52l.28-.11c22.78,14.15,44.42,30.99,46.53,61.73Z"/><path class="cls-4" d="m226.41,675.49l.15.36c-4.51,1.88-11.02,4.32-14.62,5.76l-.6-1.04c-10.08-12.45-24.71-23.95-37.74-33.28,4.15-3.18,8.32-5.99,12.61-8.6,5.02-3.07,10.2-5.87,15.7-8.71l.43.84c14.46,11.15,19.69,26.07,24.07,44.67Z"/><path class="cls-9" d="m196.37,561.97c15.66,15.39,23.77,38.15,21.36,59.98-5.61,2.85-10.84,5.46-15.82,8.03-5.5,2.84-10.68,5.64-15.7,8.71l-.19-.31c6.62-21.68,6.52-48.85-.95-70.25l-.21-.48c3.91-1.67,7.69-3.68,11.24-6.08l.27.4Z"/><path class="cls-8" d="m205.41,477.52c1.21,13.07,1.51,29.44-.33,47.91-.2.18-.41.37-.61.57.16.21.33.43.49.65-1.06,10.24-2.79,21.11-5.37,32.42-1.14.88-2.3,1.71-3.49,2.5-3.55,2.4-7.33,4.41-11.24,6.08-1.2.52-2.41.99-3.63,1.44l-.15-1.3c-7.42-3.18-15.99-7.93-16.41-16-.27-5.15,3.04-9.68,5.7-14.1,9.55-15.79,12.2-35.08,10.06-53.4-2.14-18.33-8.78-35.85-16.76-52.49-3.59-7.48-7.52-16.07-4.27-23.7,3.39-7.97,18.04-11.08,24.75-5.61l.04-.02c1.52,3.61,3,7.23,4.41,10.88,5.42,13.88,10.07,28.02,13.47,42.52,1.28,5.47,2.52,12.81,3.34,21.65Z"/><path class="cls-8" d="m205.08,525.43c-.04.41-.08.81-.12,1.22-.16-.22-.33-.44-.49-.65.2-.2.41-.39.61-.57Z"/><path class="cls-10" d="m173.6,647.29c-1.48,1.14-2.97,2.32-4.45,3.57-5.08-7.27-13.65-11.99-22.51-12.39-8.86-.41-17.82,3.51-23.55,10.29-7.57-6.46-15.73-12.21-24.35-17.17-12.58-7.26-26.14-12.83-40.19-16.52-5.85-1.54-11.8-2.75-17.79-3.61,12.17-24.25,29.89-45.7,51.41-62.22l.35-.42c4.49,3.66,8.71,7.82,13.02,11.45,15.59,13.15,48.44,18.8,75.69,8.82,1.22-.45,2.43-.92,3.63-1.44l.21.48c7.47,21.4,7.57,48.57.95,70.25l.19.31c-4.29,2.61-8.46,5.42-12.61,8.6Z"/><path class="cls-7" d="m81.72,460.42c-7.1-1.22-14.43-1.05-21.45.62-.56-1.78-1.17-3.55-1.83-5.3-2.59-6.85-5.99-13.41-10.74-18.86-.75-.86-1.54-1.7-2.36-2.5,24.65-25.15,58.66-42.37,93.66-47.5l-.11-.76c0-3.23-.26-7.98-.25-11.22,1.99-.07,3.99-.15,5.98-.22,6.32-.23,12.64-.47,18.96-.71,2.55-.09,5.1-.18,7.65-.28,4.51,9.49,8.89,19.08,12.96,28.78l-.04.02c-6.71-5.47-21.36-2.36-24.75,5.61-3.25,7.63.68,16.22,4.27,23.7,7.98,16.64,14.62,34.16,16.76,52.49,2.14,18.32-.51,37.61-10.06,53.4-2.66,4.42-5.97,8.95-5.7,14.1.42,8.07,8.99,12.82,16.41,16l.15,1.3c-27.25,9.98-60.1,4.33-75.69-8.82-4.31-3.63-8.53-7.79-13.02-11.45-4.73-3.88-9.77-7.23-15.51-8.85.98-26.05,3.6-52.68,4.58-78.73l.13-.82Z"/><path class="cls-4" d="m163.58,373.97c-6.32.24-12.64.48-18.96.71v-.06c-.17-2.41-.7-9.47-.92-12.48,6.82,1.19,13.38,1.84,19.68,2.05v.23c0,2.16.18,7.33.2,9.55Z"/><path class="cls-4" d="m98.74,631.59l-.1.17c-16.2,14.74-30.27,29.33-44.09,47.31l-2.59.34c-3.04-2.47-6.87-4.52-9.8-7.05l.85-1.05c-.65-18.5,3.71-41.05,15.33-55.45l.21-.79c14.05,3.69,27.61,9.26,40.19,16.52Z"/><path class="cls-4" d="m47.7,436.88c4.75,5.45,8.15,12.01,10.74,18.86-8.09,6.84-18.65,15.61-26.74,22.45,4.56,2.46,6.09,8.96,3.64,13.53-2.44,4.58-8.1,6.94-13.23,6.18-7.56-1.13-13.44-8.99-12.39-16.57.85-6.08,5.31-10.93,9.56-15.36,8.85-9.23,19.54-19.84,28.42-29.09Z"/><path class="cls-6" d="m51.96,679.41c.21.16.4.33.6.5-.66,6.72-1.13,18.47-2.13,20.4-2.31,4.48-8.51,5.68-13.25,3.96-4.74-1.71-22.68-21.2-28.15-27.16-3.37-3.67-6.98-8.63-4.94-13.18,1.95-4.36,8.15-5.13,12.51-3.17,4.36,1.97,7.57,5.77,11.31,8.76s9.84,4.69,14.25,2.84c2.93,2.53,6.76,4.58,9.8,7.05Z"/></g><g><path class="cls-1" d="m137.33,76.4c-5.26,1.53-8.74,7.91-6.89,13.14,1.73,4.87,5.64,6.09,9.87,6.24,1.98.08,4.03-.09,5.95-.22-1.1.07-3.62,2.89-4.46,3.65-1.42,1.31-2.76,2.77-3.57,4.54-.7,1.52-.79,3.21-.42,4.8.5,2.12,1.82,4.08,3.67,5.29,2.17,1.42,5.02,1.76,7.46.87-2.64,1.02-4.84,3.15-5.94,5.76-1.59,3.78-1.29,10.6,2.11,13.36,4.66,3.79,12.86.9,14.32-4.86"/><path class="cls-1" d="m137.33,76.4c.34-.05.68-.13,1.02-.23-.35.06-.69.13-1.02.23Z"/><path class="cls-1" d="m143.47,38.18c-2.47-2.6-6.62-3.49-9.91-2.03-3.52,1.58-5.69,5.71-4.99,9.51.69,3.79,4.19,6.88,8.05,7.1-3.99.73-7.68.3-10.53,3.49-2.51,2.81-3.87,6.75-3.13,10.5,1.24,6.29,8.12,10.78,14.37,9.65"/><path class="cls-1" d="m143.47,38.18c.15.21.33.4.51.59-.16-.21-.33-.41-.51-.59Z"/><path class="cls-1" d="m287.69,79.54c5.08-1.35,8.71-6.84,7.95-12.05-.77-5.21-5.83-9.43-11.09-9.25,3.8-2.79,4.97-8.59,2.55-12.63-2.43-4.04-8.1-5.74-12.34-3.7,3.13-3.99,2.92-10.23-.47-14.01s-9.56-4.67-13.88-2c.93-4.86-2.3-10.17-7.05-11.58-4.74-1.4-10.34,1.28-12.22,5.87,1.64-4.92-1.56-10.88-6.55-12.24-5-1.36-10.78,2.15-11.87,7.22.18-6.16-5.51-11.84-11.66-11.67-6.15.18-11.51,6.17-10.99,12.31-.46-6.09-6.55-11.15-12.62-10.5-6,.64-13.26,10.1-11.18,16.2-.96-2.8-2.31-5.59-4.64-7.42-3.95-3.09-10.36-2.31-13.45,1.63-3.09,3.95-2.32,10.35,1.62,13.45-4.37-2.94-8.95-8.19-14.34-4.58-4.28,2.87-5.18,9.59-1.99,13.59"/><path class="cls-1" d="m256.68,128c-3.05,3.61-3.19,9.53-.04,13.11,3.53,4.01,10.47,4.29,14.32.59-2.93,5.05,1.7,12.54,7.53,12.17.7-.04,1.36-.2,1.99-.45,4.61-1.79,7.07-8.48,3.95-12.57,5.79,2.03,12.9-1.83,14.36-7.79,1.46-5.95-3.06-12.66-9.13-13.54,4.71-1.25,8.24-6.01,8.05-10.88s-4.08-9.35-8.87-10.22c4.79-.5,8.76-5.18,8.47-10-.3-4.81-4.8-8.96-9.62-8.88h-.01"/><path class="cls-1" d="m256.69,127.99c.42-.35.82-.74,1.18-1.15-.43.35-.83.73-1.18,1.15Z"/><path class="cls-1" d="m256.69,127.99h-.01"/><path class="cls-1" d="m159.54,128.45c-.03.18-.07.35-.11.52-1.01,5.58,3.55,11.6,9.23,12.01,5.87.43,11.39-5.23,10.83-11.09.55,6.2,7.52,10.96,13.5,9.21,5.97-1.74,9.28-9.51,6.41-15.03,2.75,3.91,8.16,5.7,12.7,4.2,4.53-1.5,7.82-6.16,7.7-10.94.87,4.1,4.74,7.35,8.92,7.49,4.18.15,8.26-2.83,9.41-6.86-.61,4.78,2.19,9.79,6.58,11.76,3.88,1.74,8.72.98,11.97-1.72"/></g></g></g><g><path class="cls-2" d="m270.64,263.92c18.84-9.57,24.36,9.95,21.2,21.17-1.68,5.99-11.42,24.58-27.22,17.52"/><path class="cls-2" d="m275.88,303.79c-14.48,23.11-60.9,74.29-139.3,56.95-78.39-17.34-100.2-51.81-106.31-74.45-.05-.18-.1-.37-.15-.55-6.31-24.01-2.82-51.98,8.81-73.9,10.02-18.91,24.18-37.03,38.97-53.11,2.49-2.71,7.61-9.65,10.4-16.23,10.87-25.63,31.77-38.85,51.93-45.19"/><path class="cls-2" d="m143.66,361.58c.18,2.57.78,10.47.97,13.04"/><path class="cls-2" d="m163.37,364.43c.03,2.18.19,7.45.22,9.62"/><path class="cls-2" d="m107.49,472.2c-12.85-10.78-30.9-15.05-47.21-11.17-3.11-9.8-7.58-19.47-14.94-26.66,27.07-27.61,65.42-45.66,103.97-48.66"/><path class="cls-2" d="m81.6,461.24c-.98,26.06-3.6,52.68-4.58,78.73,11.17,3.15,19.65,12.81,28.53,20.29,19.34,16.31,65.23,21.09,94.05-1.2,10.54-46.12,6.74-85.02,2.48-103.2-6.69-28.54-18.25-55.7-30.84-82.17-10.86.4-21.73.8-32.59,1.21,0,3.24.26,7.99.25,11.22"/><path class="cls-2" d="m188.88,413.24c22.78,14.15,44.43,30.99,46.53,61.73-9.2,3.61-19.46,4.49-29.15,2.48"/><path class="cls-2" d="m234.44,476.06c2.9-2.9,17.69-.42,14.01,12.38,9.76-4.6,11.74,7.71,3.67,11.11s-14.96-.88-17.08-5.73c-2.12-4.85-3.51-14.86-.61-17.76Z"/><path class="cls-2" d="m47.89,436.68c-8.91,9.3-19.7,19.99-28.61,29.28-4.25,4.43-8.71,9.28-9.55,15.36-1.05,7.58,4.82,15.44,12.39,16.57,5.13.77,10.78-1.6,13.23-6.17s.92-11.07-3.64-13.53c8.1-6.85,18.68-15.64,26.78-22.49"/><path class="cls-2" d="m92.18,549.24c-21.52,16.53-39.24,37.97-51.41,62.22,30.22,4.36,59.12,17.46,82.33,37.29,5.73-6.78,14.69-10.69,23.55-10.29s17.43,5.12,22.51,12.39c14.88-12.48,29.6-19.25,48.58-28.91,2.41-21.83-5.7-44.58-21.36-59.98"/><path class="cls-2" d="m173.58,647.28c13.04,9.33,25.76,18.9,35.85,31.36"/><path class="cls-2" d="m202.34,630.82c14.46,11.16,19.61,23.74,23.99,42.34"/><path class="cls-2" d="m209.91,682.47c2.46-1.14,11.73-4.54,17.29-6.88,4.26,3.86,18.12,19.01,14.23,29.22s-16.37,17.34-23.57,11.72c-7.2-5.61,2.13-12.14-7.95-34.06Z"/><path class="cls-2" d="m98.65,631.76c-16.21,14.74-30.28,29.33-44.09,47.31"/><path class="cls-2" d="m58.34,615.86c-11.62,14.4-15.98,36.95-15.33,55.44"/><path class="cls-2" d="m42.17,672.37c3.13,2.7,7.27,4.85,10.4,7.55-.66,6.72-1.13,18.46-2.13,20.4-2.31,4.48-8.52,5.68-13.25,3.96-4.74-1.72-22.68-21.2-28.15-27.16-3.37-3.67-6.98-8.63-4.95-13.18,1.96-4.37,8.15-5.14,12.51-3.17s7.57,5.77,11.31,8.76c3.74,2.99,9.84,4.69,14.25,2.84Z"/><path class="cls-2" d="m81.08,187.18c13.46,1.74,26.93,3.48,40.39,5.21"/><path class="cls-2" d="m154.18,200.75c33.32,9.43,66.65,18.87,99.97,28.3"/><path class="cls-2" d="m94.99,283.3c5.94,4.75,11.88,9.5,17.81,14.25"/><path class="cls-2" d="m281.44,155.15c16.36,26.46,23.09,57.96,16.83,88.83-1.84,7.65-4.55,16.88-6.67,24.81"/><path class="cls-2" d="m137.82,108.55c.5,2.12,1.82,4.08,3.66,5.29,2.17,1.43,5.02,1.76,7.46.88-2.64,1.02-4.83,3.15-5.93,5.75-1.59,3.78-1.29,10.6,2.1,13.36,4.8,3.9,13.35.72,14.43-5.37-1.4,5.71,3.26,12.11,9.12,12.53s11.39-5.24,10.83-11.09c.55,6.2,7.52,10.96,13.5,9.21s9.28-9.51,6.41-15.03c2.75,3.91,8.17,5.7,12.7,4.2s7.82-6.16,7.71-10.94c.86,4.09,4.74,7.34,8.92,7.49s8.27-2.83,9.41-6.86c-.61,4.77,2.19,9.78,6.58,11.75s10,.75,13.16-2.88c-4.16,3.35-4.75,10.27-1.22,14.27s10.47,4.29,14.31.59c-2.93,5.05,1.7,12.54,7.53,12.17,5.83-.37,9.48-8.37,5.94-13.02,5.79,2.02,12.9-1.83,14.36-7.79s-3.06-12.66-9.13-13.55c4.71-1.25,8.23-6.01,8.04-10.88-.19-4.87-4.08-9.35-8.87-10.22,4.8-.5,8.76-5.18,8.47-10s-4.81-8.98-9.63-8.88c5.1-1.34,8.72-6.84,7.96-12.05s-5.82-9.43-11.09-9.25c3.8-2.78,4.97-8.59,2.55-12.63s-8.09-5.74-12.34-3.7c3.13-4,2.92-10.24-.47-14.02s-9.57-4.67-13.88-1.99c.93-4.86-2.3-10.17-7.05-11.58s-10.35,1.28-12.22,5.86c1.63-4.92-1.56-10.88-6.56-12.24s-10.77,2.15-11.86,7.22c.17-6.15-5.51-11.84-11.66-11.66s-11.51,6.17-10.99,12.3c-.47-6.09-6.55-11.15-12.62-10.5-6.01.64-13.26,10.1-11.19,16.2-.95-2.8-2.31-5.59-4.64-7.42-3.95-3.09-10.35-2.31-13.45,1.63s-2.32,10.35,1.62,13.45c-4.37-2.94-8.95-8.19-14.34-4.58-4.5,3.02-5.26,10.29-1.48,14.17-2.36-3.05-6.89-4.19-10.41-2.61s-5.7,5.71-5,9.5,4.2,6.88,8.05,7.1c-3.99.74-7.68.3-10.53,3.49-2.51,2.81-3.87,6.75-3.13,10.5,1.31,6.63,8.89,11.27,15.39,9.42-5.83.95-9.89,7.81-7.91,13.38,2.54,7.16,9.79,6.44,15.82,6.01-1.1.08-3.63,2.89-4.46,3.66-1.42,1.31-2.76,2.77-3.58,4.54-.7,1.52-.79,3.2-.42,4.79Z"/><path class="cls-2" d="m248.89,481.43c11.88-12.9,23.76-25.81,35.64-38.71,2.07,2.71,4.13,5.42,6.2,8.13-11.74,12.27-23.49,24.53-35.23,36.8"/><path class="cls-2" d="m235.06,498.14c-3.7,3.45-7.39,6.9-11.09,10.35"/><path class="cls-2" d="m244.2,500.34c-3.56,3.72-8.71,9.25-12.27,12.96"/><path class="cls-2" d="m223.74,509c15.26,8.91,33.24,16.9,50.88,17.97-4.61,24.57-25.34,45.3-49.91,49.91-3.54-17.45-9.46-36.71-20.23-50.89,6.81-6.5,12.45-10.5,19.26-17Z"/></g></svg>
